<svg width="300" height="245" viewBox="0 0 300 245" fill="none" xmlns="http://www.w3.org/2000/svg">
<g clip-path="url(#clip0_2559_178)">
<path d="M244.15 24.6236C246.066 16.8604 244.244 7.80661 238.051 2.7002C237.93 11.3917 234.717 19.7606 228.98 26.3261C226.758 28.8502 224.022 31.4279 223.915 34.7785C223.848 36.8633 224.873 38.8657 226.285 40.4098C227.697 41.9539 229.479 43.1094 231.24 44.2473L231.498 44.7003C237.165 39.0238 242.233 32.3869 244.15 24.6236Z" fill="#F0F0F0"/>
<path d="M237.927 2.8137C240.302 8.99518 240.655 15.7626 238.936 22.1548C238.591 23.5374 238.028 24.8573 237.269 26.0659C236.491 27.2195 235.416 28.1451 234.156 28.7467C232.992 29.331 231.734 29.795 230.733 30.65C230.228 31.0952 229.823 31.6415 229.545 32.2531C229.267 32.8646 229.122 33.5276 229.121 34.1986C229.072 35.8702 229.632 37.4594 230.233 38.9947C230.901 40.6992 231.622 42.4593 231.468 44.3256C231.449 44.5517 231.803 44.5673 231.822 44.3415C232.091 41.0945 229.87 38.3518 229.518 35.2024C229.353 33.7328 229.634 32.2051 230.728 31.1337C231.685 30.1967 232.982 29.7172 234.166 29.1357C235.403 28.5667 236.482 27.7054 237.308 26.627C238.127 25.4607 238.74 24.1645 239.121 22.794C240.028 19.7221 240.443 16.5276 240.351 13.3276C240.266 9.67495 239.552 6.0636 238.241 2.64983C238.16 2.43857 237.846 2.60382 237.927 2.8137Z" fill="white"/>
<path d="M239.612 20.1287C240.731 20.2695 241.864 20.0107 242.809 19.3984C243.753 18.7862 244.448 17.8604 244.769 16.7864C244.833 16.5689 244.496 16.4597 244.432 16.6775C244.135 17.6781 243.487 18.5404 242.606 19.1088C241.726 19.6771 240.669 19.914 239.628 19.7768C239.401 19.7473 239.387 20.0994 239.612 20.1287Z" fill="white"/>
<path d="M234.785 28.5275C233.356 26.7303 232.661 24.4642 232.84 22.1811C232.858 21.9549 232.504 21.9393 232.486 22.1652C232.304 24.5413 233.032 26.8981 234.523 28.7651C234.665 28.943 234.926 28.7044 234.785 28.5275Z" fill="white"/>
<path d="M239.838 9.87038C239.394 9.90552 238.947 9.83048 238.539 9.65202C238.131 9.47355 237.774 9.19724 237.5 8.8479C237.36 8.66833 237.099 8.9071 237.238 9.08548C237.543 9.47005 237.937 9.77472 238.388 9.97289C238.838 10.1711 239.331 10.2567 239.822 10.2223C239.869 10.2229 239.914 10.2059 239.948 10.1747C239.983 10.1435 240.004 10.1004 240.007 10.0543C240.009 10.0077 239.992 9.96224 239.961 9.9278C239.929 9.89336 239.885 9.87273 239.838 9.87038Z" fill="white"/>
<path d="M211.271 7.72583C211.355 7.84042 211.439 7.955 211.522 8.07242C212.645 9.61879 213.641 11.2532 214.497 12.9596C214.566 13.0905 214.633 13.2241 214.697 13.3567C216.718 17.4896 217.948 21.959 218.325 26.5378C218.473 28.3599 218.482 30.1906 218.351 32.014C218.169 34.5323 217.77 37.2483 218.418 39.6095C218.483 39.8566 218.563 40.0994 218.658 40.3367L230.921 44.9783C230.955 44.9749 230.987 44.9744 231.02 44.9711L231.501 45.1787C231.515 45.0851 231.527 44.9878 231.54 44.8942C231.548 44.8399 231.553 44.7847 231.561 44.7304C231.566 44.6939 231.57 44.6574 231.576 44.6247C231.578 44.6125 231.579 44.6004 231.58 44.591C231.586 44.5583 231.588 44.5273 231.593 44.4974C231.661 43.9535 231.725 43.4082 231.785 42.8615C231.786 42.8587 231.786 42.8587 231.785 42.8549C232.285 38.6932 232.286 34.4874 231.788 30.3255C231.771 30.2015 231.756 30.0748 231.734 29.9487C231.476 28.0923 231.066 26.2599 230.507 24.4698C230.198 23.4906 229.84 22.5276 229.433 21.5844C228.376 19.1493 226.941 16.8944 225.179 14.9023C221.665 10.9316 216.913 8.12078 211.671 7.75022C211.537 7.74086 211.406 7.73242 211.271 7.72583Z" fill="#F0F0F0"/>
<path d="M211.239 7.89084C216.883 11.4065 221.268 16.5988 223.772 22.7301C224.334 24.0406 224.685 25.4309 224.812 26.8498C224.89 28.2361 224.593 29.6178 223.951 30.8515C223.377 32.0137 222.653 33.1364 222.373 34.4171C222.239 35.0748 222.247 35.7531 222.396 36.4076C222.545 37.0621 222.831 37.6779 223.237 38.2147C224.212 39.5783 225.622 40.5127 227.033 41.3789C228.6 42.3406 230.243 43.3149 231.251 44.8973C231.373 45.0891 231.666 44.8896 231.544 44.6982C229.789 41.9451 226.353 41.0829 224.162 38.7788C223.14 37.7037 222.438 36.3162 222.662 34.8065C222.858 33.4864 223.603 32.328 224.195 31.1562C224.839 29.9618 225.178 28.6291 225.183 27.2746C225.13 25.8538 224.833 24.4524 224.306 23.1304C223.168 20.1353 221.563 17.3365 219.549 14.8367C217.266 11.9709 214.507 9.51401 211.39 7.57221C211.197 7.4521 211.047 7.7715 211.239 7.89084Z" fill="white"/>
<path d="M223.083 20.7088C224.062 20.1521 224.81 19.268 225.193 18.2143C225.576 17.1607 225.569 16.0061 225.174 14.9568C225.094 14.7448 224.758 14.8593 224.839 15.0716C225.209 16.0481 225.215 17.1235 224.856 18.104C224.497 19.0844 223.797 19.9052 222.882 20.4182C222.684 20.5299 222.886 20.8199 223.083 20.7088Z" fill="white"/>
<path d="M224.321 30.3003C222.091 29.7197 220.162 28.3255 218.921 26.3957C218.798 26.2044 218.505 26.4038 218.628 26.5949C219.924 28.6006 221.934 30.0475 224.256 30.6466C224.478 30.7036 224.542 30.357 224.321 30.3003Z" fill="white"/>
<path d="M217.044 12.3825C216.71 12.6763 216.309 12.8832 215.875 12.9847C215.441 13.0861 214.988 13.079 214.557 12.9638C214.337 12.9041 214.273 13.2508 214.492 13.3101C214.969 13.4352 215.468 13.4425 215.948 13.3314C216.428 13.2204 216.873 12.9944 217.245 12.6731C217.282 12.6458 217.308 12.6052 217.316 12.5598C217.325 12.5143 217.316 12.4673 217.291 12.4283C217.264 12.3899 217.223 12.3636 217.177 12.3551C217.131 12.3465 217.083 12.3564 217.044 12.3825Z" fill="white"/>
<path d="M195.056 183.087C153.943 183.087 120.494 149.873 120.494 109.048C120.494 68.2232 153.943 35.0095 195.056 35.0095C199.403 35.009 203.741 35.3823 208.023 36.1252C208.076 36.1344 208.127 36.1539 208.173 36.1827C208.219 36.2114 208.259 36.2489 208.29 36.2929C208.321 36.3369 208.343 36.3866 208.355 36.4391C208.367 36.4916 208.368 36.5459 208.359 36.5989C208.349 36.6519 208.33 36.7025 208.3 36.7479C208.271 36.7933 208.234 36.8325 208.189 36.8634C208.145 36.8942 208.095 36.9161 208.042 36.9277C207.989 36.9393 207.934 36.9404 207.881 36.931C203.646 36.1963 199.355 35.8272 195.056 35.8276C154.397 35.8276 121.318 68.6742 121.318 109.048C121.318 149.422 154.397 182.269 195.056 182.269C235.716 182.269 268.794 149.422 268.794 109.048C268.813 90.7996 261.95 73.2053 249.559 59.7291C249.486 59.6488 249.448 59.5432 249.453 59.4352C249.458 59.3272 249.507 59.2258 249.587 59.1529C249.667 59.0801 249.774 59.0418 249.882 59.0465C249.991 59.0512 250.094 59.0984 250.167 59.1779C262.698 72.8047 269.637 90.5957 269.618 109.048C269.618 149.873 236.17 183.087 195.056 183.087Z" fill="#E4E4E4"/>
<path d="M227.932 60.4023C236.08 60.4023 242.685 53.8439 242.685 45.7536C242.685 37.6634 236.08 31.105 227.932 31.105C219.785 31.105 213.18 37.6634 213.18 45.7536C213.18 53.8439 219.785 60.4023 227.932 60.4023Z" fill="url(#paint0_linear_2559_178)"/>
<path d="M225.92 53.3775C225.665 53.3775 225.414 53.3186 225.186 53.2054C224.958 53.0922 224.76 52.928 224.607 52.7256L220.583 47.397C220.453 47.2258 220.359 47.031 220.306 46.8237C220.252 46.6164 220.24 46.4007 220.271 46.1889C220.301 45.977 220.374 45.7732 220.483 45.5891C220.593 45.405 220.738 45.2442 220.911 45.1158C221.083 44.9874 221.279 44.894 221.488 44.8409C221.697 44.7878 221.914 44.776 222.127 44.8063C222.341 44.8366 222.546 44.9083 222.731 45.0173C222.917 45.1263 223.079 45.2705 223.208 45.4417L225.841 48.9276L232.604 38.8549C232.846 38.4968 233.221 38.2486 233.647 38.1647C234.073 38.0808 234.515 38.168 234.877 38.4072C235.238 38.6465 235.489 39.0182 235.575 39.441C235.661 39.8638 235.574 40.3031 235.335 40.6627L227.285 52.6518C227.14 52.8686 226.944 53.0477 226.714 53.1738C226.485 53.3 226.228 53.3696 225.965 53.3769C225.95 53.3772 225.935 53.3775 225.92 53.3775Z" fill="white"/>
<path d="M193.138 97.5586L170.389 34.7153L170.966 34.5093L166.782 22.9508L166.205 23.1569L159.22 3.86203C158.959 3.14139 158.558 2.47882 158.039 1.91216C157.52 1.34549 156.894 0.885838 156.197 0.55943C155.499 0.233021 154.744 0.0462502 153.973 0.00978795C153.203 -0.0266743 152.433 0.0878838 151.707 0.346919L110.582 15.0259C109.856 15.2849 109.189 15.6834 108.618 16.1985C108.047 16.7135 107.584 17.3352 107.256 18.0279C106.927 18.7206 106.739 19.4709 106.702 20.2358C106.665 21.0007 106.781 21.7653 107.041 22.486L111.912 35.9395L111 36.2881L114.109 44.3043L114.839 44.0253L115.484 45.8084L114.708 46.1054L117.816 54.1217L118.411 53.8942L140.959 116.183C141.219 116.904 141.62 117.568 142.138 118.135C142.657 118.703 143.283 119.163 143.981 119.489C144.679 119.816 145.435 120.002 146.206 120.038C146.976 120.074 147.747 119.958 148.472 119.698L189.598 105.019C191.062 104.494 192.257 103.414 192.921 102.016C193.585 100.617 193.663 99.0141 193.138 97.5586Z" fill="#5B5B5B"/>
<path d="M146.309 117.626C145.73 117.625 145.165 117.447 144.692 117.116C144.218 116.785 143.859 116.317 143.663 115.776L109.387 21.0902C109.135 20.3929 109.172 19.6245 109.49 18.9541C109.808 18.2838 110.381 17.7663 111.083 17.5156L119.833 14.3924L119.82 14.6964C119.798 15.2241 119.907 15.7492 120.137 16.2254C120.367 16.7016 120.711 17.1144 121.14 17.4272C121.568 17.7401 122.068 17.9435 122.594 18.0196C123.12 18.0956 123.658 18.042 124.158 17.8633L143.577 10.932C144.046 10.7187 144.458 10.3989 144.779 9.99839C145.1 9.59786 145.322 9.12789 145.426 8.62649C145.529 8.13345 145.514 7.62316 145.381 7.13726C145.247 6.65137 145 6.20363 144.66 5.83061L144.455 5.6043L153.493 2.37801C154.196 2.12837 154.969 2.16552 155.644 2.4813C156.319 2.79709 156.84 3.36574 157.093 4.06256L189.795 94.4004C190.463 96.251 190.364 98.289 189.52 100.067C188.676 101.845 187.156 103.219 185.294 103.886L147.263 117.46C146.957 117.57 146.634 117.626 146.309 117.626Z" fill="white"/>
<path d="M142.959 50.4678C149.102 50.4678 154.081 45.5231 154.081 39.4234C154.081 33.3237 149.102 28.3789 142.959 28.3789C136.816 28.3789 131.836 33.3237 131.836 39.4234C131.836 45.5231 136.816 50.4678 142.959 50.4678Z" fill="url(#paint1_linear_2559_178)"/>
<path d="M170.52 55.4847L132.002 69.233C131.882 69.2762 131.754 69.2955 131.627 69.2897C131.499 69.2838 131.373 69.253 131.257 69.199C131.142 69.145 131.038 69.0688 130.952 68.9749C130.865 68.8809 130.799 68.771 130.756 68.6514C130.712 68.5318 130.693 68.405 130.699 68.2781C130.706 68.1512 130.737 68.0267 130.792 67.9118C130.846 67.797 130.923 67.6939 131.018 67.6086C131.113 67.5233 131.224 67.4574 131.344 67.4147L169.862 53.6665C170.105 53.5806 170.372 53.5937 170.605 53.703C170.837 53.8124 171.017 54.0089 171.104 54.2496C171.191 54.4903 171.179 54.7555 171.069 54.9871C170.96 55.2186 170.762 55.3976 170.52 55.4847Z" fill="#E6E6E6"/>
<path d="M159.082 64.2017L146.412 68.7239C146.292 68.7671 146.164 68.7863 146.036 68.7805C145.909 68.7746 145.783 68.7438 145.668 68.6897C145.552 68.6357 145.448 68.5595 145.362 68.4656C145.276 68.3716 145.209 68.2617 145.166 68.1422C145.122 68.0226 145.103 67.8958 145.11 67.7689C145.116 67.642 145.147 67.5176 145.202 67.4027C145.256 67.2879 145.333 67.1848 145.428 67.0995C145.523 67.0142 145.634 66.9483 145.754 66.9056L158.424 62.3834C158.666 62.2967 158.934 62.3094 159.167 62.4186C159.401 62.5278 159.581 62.7246 159.668 62.9657C159.756 63.2069 159.743 63.4726 159.633 63.7043C159.523 63.9361 159.325 64.115 159.082 64.2017Z" fill="#E6E6E6"/>
<path d="M162.095 72.5264L149.426 77.0486C149.305 77.0915 149.178 77.1105 149.05 77.1045C148.923 77.0985 148.797 77.0675 148.682 77.0134C148.566 76.9593 148.462 76.8832 148.377 76.7893C148.291 76.6954 148.224 76.5857 148.181 76.4663C148.138 76.3469 148.119 76.2202 148.125 76.0935C148.131 75.9667 148.162 75.8424 148.216 75.7277C148.271 75.6129 148.347 75.5099 148.442 75.4246C148.537 75.3392 148.647 75.2732 148.767 75.2303L161.437 70.7081C161.68 70.6214 161.947 70.6341 162.181 70.7433C162.414 70.8525 162.594 71.0493 162.682 71.2904C162.769 71.5316 162.756 71.7973 162.646 72.0291C162.536 72.2608 162.338 72.4398 162.095 72.5264Z" fill="#E6E6E6"/>
<path d="M163.638 76.79L150.969 81.3122C150.849 81.3555 150.721 81.3748 150.593 81.369C150.465 81.3632 150.34 81.3324 150.224 81.2784C150.108 81.2244 150.004 81.1482 149.918 81.0542C149.832 80.9602 149.765 80.8503 149.722 80.7307C149.679 80.6111 149.66 80.4842 149.666 80.3573C149.672 80.2304 149.703 80.1059 149.758 79.991C149.813 79.8761 149.89 79.7731 149.984 79.6878C150.079 79.6025 150.19 79.5366 150.311 79.494L162.98 74.9718C163.101 74.9285 163.228 74.9092 163.356 74.9151C163.484 74.9209 163.609 74.9517 163.725 75.0057C163.841 75.0598 163.945 75.1359 164.031 75.2299C164.117 75.3239 164.184 75.4338 164.227 75.5534C164.27 75.6729 164.289 75.7998 164.283 75.9267C164.277 76.0536 164.246 76.178 164.191 76.2929C164.136 76.4078 164.059 76.5108 163.965 76.5961C163.87 76.6814 163.759 76.7473 163.638 76.79Z" fill="#E6E6E6"/>
<path d="M167.673 65.7695L140.792 75.3641C140.672 75.4073 140.544 75.4266 140.417 75.4208C140.289 75.4149 140.163 75.3841 140.048 75.3301C139.932 75.2761 139.828 75.1999 139.742 75.1059C139.656 75.012 139.589 74.9021 139.546 74.7825C139.502 74.6629 139.483 74.5361 139.489 74.4092C139.496 74.2823 139.527 74.1578 139.582 74.0429C139.636 73.9281 139.713 73.825 139.808 73.7397C139.903 73.6544 140.014 73.5885 140.134 73.5458L167.015 63.9513C167.135 63.908 167.263 63.8887 167.391 63.8946C167.518 63.9004 167.644 63.9312 167.76 63.9852C167.875 64.0393 167.979 64.1154 168.066 64.2094C168.152 64.3034 168.218 64.4133 168.262 64.5328C168.305 64.6524 168.324 64.7793 168.318 64.9062C168.312 65.0331 168.28 65.1575 168.226 65.2724C168.171 65.3873 168.094 65.4903 167.999 65.5756C167.904 65.6609 167.793 65.7268 167.673 65.7695Z" fill="#E6E6E6"/>
<path d="M162.259 87.1405L157.658 88.7825C157.245 88.9295 156.791 88.9078 156.394 88.722C155.997 88.5362 155.691 88.2017 155.543 87.7919C155.394 87.382 155.416 86.9305 155.603 86.5365C155.79 86.1424 156.126 85.8382 156.539 85.6906L161.139 84.0486C161.552 83.9016 162.007 83.9233 162.403 84.1091C162.8 84.2949 163.106 84.6294 163.255 85.0392C163.403 85.4491 163.381 85.9006 163.195 86.2946C163.008 86.6887 162.671 86.9929 162.259 87.1405Z" fill="url(#paint2_linear_2559_178)"/>
<path d="M126.007 14.6987C126.36 14.6987 126.647 14.4143 126.647 14.0635C126.647 13.7126 126.36 13.4282 126.007 13.4282C125.654 13.4282 125.367 13.7126 125.367 14.0635C125.367 14.4143 125.654 14.6987 126.007 14.6987Z" fill="white"/>
<path d="M52.4339 49.7915C59.604 41.4107 71.2379 36.1289 81.9635 38.8673C72.3034 46.0086 65.4984 56.3127 62.7527 67.9565C61.7101 72.4508 61.0218 77.5574 57.3471 80.378C55.0606 82.1331 51.9861 82.6129 49.114 82.2944C46.2419 81.9758 43.5082 80.9351 40.8113 79.9036L40.0942 79.9826C41.8979 69.1326 45.2637 58.1724 52.4339 49.7915Z" fill="#F0F0F0"/>
<path d="M81.9365 39.0965C73.0819 41.4511 65.1995 46.5162 59.409 53.5724C58.1353 55.0695 57.1072 56.7565 56.3625 58.5715C55.6946 60.3628 55.522 62.299 55.8626 64.1789C56.1447 65.9381 56.6384 67.7052 56.4849 69.5018C56.3926 70.4203 56.1058 71.3091 55.6434 72.1098C55.1809 72.9105 54.5532 73.6051 53.8014 74.148C51.9636 75.5493 49.7284 76.2112 47.5199 76.7831C45.0677 77.4181 42.5106 78.0391 40.5398 79.7146C40.301 79.9176 39.9978 79.5378 40.2362 79.3351C43.665 76.42 48.5346 76.6672 52.3544 74.518C54.1368 73.5151 55.6256 71.9728 55.9463 69.8977C56.2267 68.0831 55.7192 66.2605 55.418 64.4817C55.0587 62.6526 55.1559 60.7639 55.7011 58.9807C56.3503 57.134 57.3112 55.4104 58.5428 53.8838C61.2602 50.4029 64.512 47.368 68.1788 44.8902C72.348 42.0392 76.9776 39.9175 81.8673 38.6167C82.1699 38.5363 82.2372 39.0167 81.9365 39.0965Z" fill="white"/>
<path d="M61.1387 51.1914C60.0783 50.0659 59.4553 48.6029 59.381 47.0635C59.3067 45.5241 59.7859 44.0086 60.733 42.7876C60.9255 42.5412 61.3202 42.8267 61.1274 43.0734C60.2434 44.2087 59.7971 45.6205 59.8693 47.0538C59.9414 48.4872 60.5272 49.8477 61.5208 50.8899C61.7365 51.1166 61.3531 51.4168 61.1387 51.1914Z" fill="white"/>
<path d="M55.6012 63.3056C58.7711 63.4386 61.875 62.3803 64.294 60.3417C64.5335 60.1396 64.8369 60.5193 64.5977 60.7212C62.0764 62.8379 58.8441 63.9327 55.5457 63.7871C55.2313 63.773 55.2886 63.2916 55.6012 63.3056Z" fill="white"/>
<path d="M72.473 42.6697C72.7919 43.19 73.236 43.6236 73.7653 43.9314C74.2946 44.2392 74.8927 44.4117 75.5057 44.4333C75.8201 44.4434 75.7625 44.9248 75.4502 44.9148C74.773 44.8878 74.1128 44.6966 73.5272 44.3578C72.9416 44.019 72.4484 43.5429 72.0909 42.9712C72.0526 42.9201 72.0354 42.8565 72.0427 42.7933C72.0499 42.73 72.0812 42.6719 72.1301 42.6307C72.1809 42.5911 72.2454 42.5729 72.3096 42.5802C72.3738 42.5875 72.4325 42.6197 72.473 42.6697Z" fill="white"/>
<path d="M97.9122 72.5646C97.7157 72.5638 97.5192 72.563 97.3203 72.5656C94.6785 72.5687 92.0413 72.7849 89.4348 73.2121C89.2327 73.242 89.0284 73.2752 88.8276 73.3108C82.559 74.4064 76.5496 76.6482 71.1051 79.9222C68.9398 81.227 66.8776 82.6935 64.9363 84.3089C62.2555 86.5401 59.5277 89.1711 56.3545 90.3576C56.0249 90.4851 55.6876 90.5921 55.3446 90.6782L40.2467 80.8453C40.2237 80.8058 40.1983 80.7697 40.1751 80.7301L39.5542 80.3649C39.6485 80.2747 39.7482 80.1831 39.8424 80.0928C39.8969 80.0402 39.9547 79.9898 40.0092 79.9372C40.0465 79.9029 40.0841 79.8686 40.1158 79.8355C40.1282 79.824 40.1408 79.8126 40.1509 79.8045C40.1827 79.7714 40.2157 79.744 40.2452 79.7143C40.8011 79.2007 41.3617 78.6901 41.9269 78.1826C41.9291 78.1791 41.9291 78.1791 41.9347 78.1779C46.2509 74.3213 50.9292 70.7886 55.9987 68.0732C56.1513 67.9916 56.3059 67.9064 56.4654 67.8293C58.7573 66.6179 61.1452 65.5946 63.605 64.7695C64.9534 64.3221 66.3238 63.9427 67.7108 63.6328C71.2963 62.8389 74.9852 62.6101 78.6422 62.9545C85.9325 63.6422 92.9201 66.6375 97.5617 72.1407C97.6804 72.2815 97.7958 72.4203 97.9122 72.5646Z" fill="#F0F0F0"/>
<path d="M97.7526 72.7326C89.2551 69.3189 79.8904 68.6506 70.9886 70.8228C69.0639 71.2566 67.2201 71.989 65.525 72.993C63.9057 74.0239 62.5939 75.4667 61.726 77.1713C60.8846 78.7446 60.2074 80.4506 58.9955 81.7934C58.3649 82.4716 57.597 83.0098 56.7423 83.3726C55.8875 83.7354 54.9652 83.9148 54.0357 83.8988C51.7187 83.9189 49.5327 83.1111 47.4226 82.2474C45.0797 81.2884 42.6614 80.2555 40.072 80.4151C39.7582 80.4344 39.7463 79.9498 40.0596 79.9305C44.5648 79.6529 48.3031 82.7615 52.6561 83.3291C54.6873 83.5939 56.8111 83.2526 58.3254 81.7874C59.6495 80.5062 60.3494 78.7476 61.1875 77.1473C62.0096 75.472 63.2323 74.0221 64.7488 72.9243C66.3869 71.8379 68.1992 71.0362 70.1082 70.5536C74.3884 69.3989 78.8249 68.9197 83.255 69.1335C88.3124 69.3497 93.2954 70.4233 97.9882 72.308C98.2787 72.4248 98.0412 72.8486 97.7526 72.7326Z" fill="white"/>
<path d="M73.8136 69.9559C73.6494 68.4234 74.039 66.8828 74.9131 65.6093C75.7871 64.3357 77.0886 63.4121 78.5851 63.0035C78.8882 62.9218 79.0302 63.3857 78.7268 63.4675C77.3325 63.8454 76.1202 64.7059 75.3088 65.8934C74.4973 67.081 74.1401 68.5175 74.3016 69.9437C74.3363 70.2536 73.8481 70.2641 73.8136 69.9559Z" fill="white"/>
<path d="M62.0469 76.318C64.4973 78.3193 67.6173 79.33 70.7847 79.1485C71.0985 79.1303 71.1105 79.6148 70.7971 79.633C67.5006 79.8157 64.2559 78.7574 61.7107 76.6693C61.4682 76.4701 61.8058 76.1199 62.0469 76.318Z" fill="white"/>
<path d="M88.0298 69.9281C87.9689 70.5342 88.0606 71.1458 88.2966 71.7081C88.5326 72.2703 88.9055 72.7655 89.3819 73.1493C89.6268 73.3453 89.2889 73.6953 89.0456 73.5005C88.5213 73.0741 88.1101 72.5267 87.8479 71.9061C87.5858 71.2855 87.4807 70.6106 87.5418 69.9403C87.5422 69.8767 87.5671 69.8156 87.6112 69.7694C87.6554 69.7233 87.7156 69.6956 87.7796 69.6919C87.8442 69.6906 87.9067 69.7147 87.9536 69.7589C88.0004 69.8031 88.0278 69.8639 88.0298 69.9281Z" fill="white"/>
<path d="M267.62 210.873C275.438 212.776 284.556 210.967 289.698 204.817C280.945 204.697 272.517 201.506 265.905 195.81C263.363 193.604 260.768 190.887 257.393 190.78C255.294 190.714 253.277 191.731 251.722 193.134C250.167 194.536 249.004 196.305 247.858 198.054L247.401 198.31C253.118 203.938 259.802 208.97 267.62 210.873Z" fill="#F0F0F0"/>
<path d="M289.584 204.694C283.359 207.052 276.544 207.403 270.106 205.696C268.714 205.353 267.385 204.794 266.168 204.04C265.006 203.268 264.074 202.2 263.468 200.949C262.879 199.794 262.412 198.544 261.551 197.551C261.103 197.049 260.553 196.647 259.937 196.371C259.321 196.095 258.653 195.951 257.978 195.949C256.294 195.901 254.694 196.457 253.148 197.054C251.431 197.717 249.658 198.433 247.779 198.28C247.551 198.261 247.536 198.613 247.763 198.632C251.033 198.899 253.795 196.693 256.967 196.344C258.447 196.18 259.985 196.459 261.064 197.546C262.008 198.496 262.491 199.784 263.076 200.959C263.649 202.188 264.517 203.259 265.603 204.079C266.777 204.892 268.082 205.501 269.463 205.879C272.556 206.78 275.773 207.192 278.996 207.101C282.674 207.016 286.311 206.308 289.749 205.006C289.962 204.925 289.796 204.614 289.584 204.694Z" fill="white"/>
<path d="M272.147 206.367C272.005 207.478 272.266 208.603 272.882 209.541C273.499 210.48 274.431 211.169 275.513 211.488C275.732 211.552 275.842 211.217 275.622 211.153C274.615 210.858 273.746 210.215 273.174 209.341C272.601 208.466 272.363 207.417 272.501 206.383C272.531 206.158 272.176 206.143 272.147 206.367Z" fill="white"/>
<path d="M263.689 201.574C265.499 200.155 267.781 199.465 270.08 199.643C270.308 199.661 270.324 199.309 270.096 199.291C267.703 199.111 265.33 199.833 263.449 201.314C263.27 201.455 263.511 201.714 263.689 201.574Z" fill="white"/>
<path d="M282.478 206.592C282.442 206.151 282.518 205.707 282.698 205.302C282.877 204.897 283.156 204.543 283.507 204.271C283.688 204.132 283.448 203.872 283.268 204.01C282.881 204.313 282.574 204.705 282.374 205.152C282.175 205.599 282.089 206.088 282.123 206.576C282.123 206.622 282.14 206.667 282.171 206.701C282.203 206.735 282.246 206.756 282.292 206.76C282.339 206.762 282.385 206.745 282.42 206.714C282.454 206.682 282.475 206.639 282.478 206.592Z" fill="white"/>
<path d="M284.637 178.225C284.522 178.308 284.407 178.392 284.288 178.475C282.731 179.59 281.085 180.578 279.367 181.429C279.235 181.497 279.1 181.564 278.967 181.628C274.805 183.634 270.304 184.855 265.693 185.23C263.858 185.377 262.014 185.386 260.178 185.255C257.642 185.075 254.906 184.679 252.528 185.322C252.28 185.387 252.035 185.466 251.796 185.561L247.122 197.738C247.125 197.771 247.126 197.803 247.129 197.836L246.92 198.314C247.014 198.327 247.112 198.339 247.206 198.352C247.261 198.36 247.317 198.365 247.371 198.373C247.408 198.378 247.445 198.382 247.478 198.388C247.49 198.39 247.502 198.391 247.512 198.391C247.545 198.398 247.576 198.4 247.606 198.405C248.154 198.472 248.703 198.536 249.254 198.596C249.256 198.597 249.256 198.597 249.26 198.595C253.451 199.091 257.687 199.092 261.878 198.598C262.003 198.581 262.131 198.566 262.258 198.544C264.127 198.288 265.972 197.881 267.775 197.327C268.761 197.02 269.731 196.664 270.681 196.259C273.133 195.211 275.404 193.785 277.41 192.035C281.409 188.547 284.24 183.827 284.613 178.623C284.622 178.49 284.631 178.359 284.637 178.225Z" fill="#F0F0F0"/>
<path d="M284.471 178.193C280.93 183.798 275.702 188.152 269.527 190.638C268.207 191.197 266.807 191.545 265.378 191.671C263.982 191.749 262.59 191.454 261.348 190.817C260.178 190.246 259.047 189.528 257.757 189.249C257.095 189.117 256.412 189.124 255.753 189.272C255.094 189.42 254.473 189.705 253.933 190.107C252.56 191.075 251.619 192.476 250.746 193.877C249.778 195.433 248.797 197.064 247.203 198.065C247.01 198.186 247.211 198.477 247.403 198.356C250.176 196.614 251.044 193.202 253.365 191.026C254.447 190.011 255.845 189.314 257.365 189.536C258.695 189.731 259.861 190.471 261.041 191.059C262.244 191.698 263.586 192.034 264.95 192.04C266.381 191.987 267.792 191.692 269.124 191.169C272.14 190.039 274.959 188.445 277.476 186.445C280.362 184.178 282.836 181.439 284.792 178.344C284.913 178.152 284.591 178.003 284.471 178.193Z" fill="white"/>
<path d="M271.563 189.954C272.123 190.926 273.014 191.669 274.075 192.049C275.136 192.43 276.299 192.423 277.355 192.031C277.569 191.951 277.454 191.617 277.24 191.698C276.256 192.065 275.173 192.071 274.186 191.714C273.199 191.358 272.372 190.663 271.855 189.755C271.743 189.558 271.451 189.758 271.563 189.954Z" fill="white"/>
<path d="M261.903 191.184C262.488 188.969 263.892 187.054 265.836 185.821C266.028 185.699 265.828 185.408 265.635 185.53C263.615 186.817 262.158 188.813 261.555 191.119C261.497 191.339 261.846 191.402 261.903 191.184Z" fill="white"/>
<path d="M279.948 183.957C279.652 183.626 279.444 183.227 279.342 182.796C279.239 182.365 279.247 181.916 279.363 181.488C279.423 181.269 279.074 181.206 279.014 181.424C278.888 181.897 278.88 182.393 278.992 182.869C279.104 183.346 279.332 183.788 279.655 184.157C279.683 184.194 279.724 184.219 279.769 184.228C279.815 184.236 279.863 184.227 279.902 184.202C279.94 184.176 279.967 184.135 279.976 184.089C279.984 184.043 279.974 183.996 279.948 183.957Z" fill="white"/>
<path d="M298.947 136.257L287.026 156.178L287.479 156.415L283.442 164.015L282.601 163.573L279.948 168.003L280.607 168.38L276.282 175.816L275.532 175.387L236.632 240.394C235.612 242.095 233.954 243.325 232.022 243.813C230.089 244.302 228.041 244.009 226.325 242.999L154.008 200.331C152.295 199.318 151.056 197.671 150.564 195.753C150.072 193.834 150.367 191.799 151.384 190.096L213.699 85.9593C214.719 84.258 216.378 83.0282 218.31 82.5397C220.242 82.0512 222.291 82.3439 224.006 83.3536L296.323 126.022C298.036 127.036 299.274 128.682 299.766 130.601C300.258 132.519 299.963 134.553 298.947 136.257Z" fill="#5B5B5B"/>
<path d="M228.903 238.979L156.331 196.161C155.803 195.849 155.422 195.341 155.27 194.75C155.118 194.158 155.209 193.531 155.523 193.006L218.251 88.1764C218.566 87.6521 219.077 87.2731 219.672 87.1225C220.268 86.9719 220.899 87.0621 221.428 87.3733L294 130.192C294.528 130.504 294.91 131.012 295.061 131.603C295.213 132.194 295.122 132.821 294.809 133.346L232.08 238.176C231.766 238.701 231.254 239.08 230.659 239.23C230.063 239.381 229.432 239.291 228.903 238.979Z" fill="white"/>
<path d="M258.713 107.126C259.066 107.126 259.353 106.841 259.353 106.49C259.353 106.14 259.066 105.855 258.713 105.855C258.36 105.855 258.073 106.14 258.073 106.49C258.073 106.841 258.36 107.126 258.713 107.126Z" fill="white"/>
<path d="M254.754 182.219L194.175 146.477C193.985 146.366 193.819 146.218 193.686 146.043C193.553 145.868 193.457 145.669 193.402 145.457C193.347 145.245 193.335 145.024 193.367 144.807C193.398 144.591 193.472 144.382 193.585 144.194C193.697 144.006 193.846 143.841 194.023 143.711C194.2 143.58 194.401 143.485 194.615 143.431C194.828 143.377 195.051 143.366 195.269 143.398C195.487 143.43 195.697 143.504 195.886 143.617L256.465 179.36C256.655 179.471 256.821 179.618 256.954 179.793C257.086 179.968 257.183 180.167 257.237 180.379C257.292 180.591 257.304 180.812 257.273 181.029C257.242 181.246 257.168 181.454 257.055 181.642C256.942 181.831 256.793 181.995 256.617 182.126C256.44 182.257 256.239 182.352 256.025 182.405C255.811 182.459 255.589 182.47 255.371 182.438C255.153 182.406 254.943 182.332 254.754 182.219Z" fill="#E6E6E6"/>
<path d="M230.565 176.681L210.639 164.924C210.45 164.813 210.285 164.665 210.153 164.49C210.021 164.315 209.925 164.116 209.871 163.905C209.817 163.693 209.805 163.473 209.837 163.256C209.868 163.04 209.942 162.832 210.054 162.644C210.167 162.457 210.315 162.293 210.491 162.162C210.668 162.031 210.868 161.936 211.081 161.882C211.295 161.828 211.516 161.817 211.734 161.848C211.952 161.879 212.161 161.953 212.35 162.064L232.277 173.821C232.466 173.933 232.631 174.08 232.762 174.255C232.894 174.43 232.99 174.629 233.044 174.841C233.098 175.052 233.11 175.273 233.079 175.489C233.047 175.705 232.973 175.913 232.861 176.101C232.749 176.288 232.6 176.452 232.424 176.583C232.248 176.714 232.047 176.809 231.834 176.863C231.621 176.917 231.399 176.928 231.181 176.897C230.964 176.866 230.754 176.792 230.565 176.681Z" fill="#E6E6E6"/>
<path d="M222.731 189.773L202.804 178.017C202.423 177.791 202.147 177.424 202.037 176.997C201.928 176.57 201.993 176.116 202.22 175.737C202.447 175.358 202.817 175.084 203.247 174.975C203.677 174.866 204.134 174.932 204.516 175.157L224.442 186.914C224.631 187.025 224.796 187.173 224.928 187.348C225.06 187.522 225.155 187.721 225.21 187.933C225.264 188.145 225.276 188.365 225.244 188.581C225.213 188.797 225.139 189.005 225.026 189.193C224.914 189.381 224.765 189.545 224.589 189.676C224.413 189.806 224.213 189.901 224 189.955C223.786 190.009 223.565 190.021 223.347 189.99C223.129 189.958 222.92 189.885 222.731 189.773Z" fill="#E6E6E6"/>
<path d="M218.718 196.479L198.792 184.723C198.602 184.611 198.437 184.464 198.304 184.289C198.172 184.114 198.076 183.915 198.021 183.703C197.967 183.491 197.955 183.27 197.986 183.054C198.018 182.837 198.092 182.629 198.204 182.441C198.317 182.253 198.466 182.089 198.642 181.958C198.819 181.827 199.019 181.732 199.233 181.678C199.446 181.625 199.669 181.613 199.887 181.645C200.105 181.677 200.314 181.751 200.503 181.863L220.429 193.62C220.619 193.731 220.786 193.878 220.918 194.053C221.051 194.228 221.147 194.427 221.202 194.639C221.257 194.851 221.269 195.072 221.238 195.289C221.206 195.506 221.132 195.714 221.02 195.902C220.907 196.091 220.758 196.255 220.581 196.386C220.404 196.517 220.203 196.612 219.99 196.665C219.776 196.719 219.553 196.73 219.335 196.698C219.117 196.666 218.907 196.592 218.718 196.479Z" fill="#E6E6E6"/>
<path d="M237.878 189.729L195.602 164.785C195.222 164.559 194.947 164.192 194.839 163.766C194.731 163.339 194.797 162.887 195.023 162.509C195.249 162.131 195.617 161.857 196.047 161.748C196.476 161.638 196.931 161.702 197.313 161.925L239.59 186.869C239.78 186.98 239.946 187.128 240.078 187.303C240.211 187.477 240.307 187.677 240.362 187.889C240.417 188.101 240.429 188.322 240.398 188.538C240.366 188.755 240.292 188.964 240.18 189.152C240.067 189.34 239.918 189.505 239.741 189.635C239.565 189.766 239.364 189.861 239.15 189.915C238.936 189.969 238.714 189.98 238.495 189.948C238.277 189.916 238.068 189.841 237.878 189.729Z" fill="#E6E6E6"/>
<path d="M229.82 221.607L222.585 217.338C221.936 216.955 221.468 216.331 221.282 215.605C221.096 214.878 221.208 214.108 221.594 213.464C221.98 212.819 222.607 212.353 223.338 212.168C224.07 211.983 224.845 212.093 225.495 212.476L232.73 216.744C233.379 217.128 233.849 217.751 234.035 218.478C234.221 219.205 234.109 219.976 233.724 220.62C233.338 221.265 232.71 221.732 231.978 221.917C231.246 222.102 230.469 221.99 229.82 221.607Z" fill="url(#paint3_linear_2559_178)"/>
<path d="M243.319 152.297C251.51 152.297 258.149 145.704 258.149 137.571C258.149 129.438 251.51 122.845 243.319 122.845C235.129 122.845 228.489 129.438 228.489 137.571C228.489 145.704 235.129 152.297 243.319 152.297Z" fill="url(#paint4_linear_2559_178)"/>
<path d="M0.174805 197.412H200.867V82.0388C200.866 81.1744 200.519 80.3456 199.904 79.7344C199.288 79.1231 198.454 78.7793 197.583 78.7783H3.45842C2.58787 78.7793 1.75325 79.1231 1.13767 79.7344C0.522085 80.3456 0.17581 81.1744 0.174805 82.0388V197.412Z" fill="#CACACA"/>
<path d="M194.666 83.2878H6.37549V189.434H194.666V83.2878Z" fill="white"/>
<path d="M2.69979e-10 194.29V208.527C-6.49146e-06 209.117 0.117061 209.702 0.344518 210.247C0.571975 210.792 0.905368 211.288 1.32566 211.705C1.74595 212.122 2.24492 212.453 2.79406 212.679C3.3432 212.905 3.93176 213.021 4.52615 213.021H78.5999V241.119H77.6159C77.5387 241.119 77.4622 241.134 77.3909 241.163C77.3196 241.193 77.2548 241.236 77.2002 241.29C77.1456 241.344 77.1022 241.408 77.0727 241.479C77.0431 241.55 77.028 241.626 77.028 241.703V243.657C77.0279 243.734 77.0432 243.809 77.0727 243.88C77.1022 243.951 77.1455 244.016 77.2001 244.07C77.2547 244.124 77.3196 244.167 77.3909 244.196C77.4622 244.226 77.5387 244.241 77.6159 244.241H123.6C123.677 244.241 123.754 244.226 123.825 244.196C123.896 244.167 123.961 244.124 124.016 244.07C124.07 244.016 124.114 243.951 124.143 243.88C124.173 243.809 124.188 243.734 124.188 243.657V241.703C124.188 241.626 124.173 241.55 124.143 241.479C124.114 241.408 124.07 241.344 124.016 241.29C123.961 241.236 123.896 241.193 123.825 241.163C123.754 241.134 123.677 241.119 123.6 241.119H122.616V213.021H196.69C197.284 213.021 197.873 212.905 198.422 212.679C198.971 212.453 199.47 212.122 199.89 211.705C200.31 211.288 200.644 210.792 200.871 210.247C201.099 209.702 201.216 209.117 201.216 208.527V194.29L2.69979e-10 194.29Z" fill="#5B5B5B"/>
<path d="M167.42 118.787H78.2528C77.6906 118.787 77.1515 118.565 76.7541 118.171C76.3566 117.776 76.1333 117.241 76.1333 116.682C76.1333 116.124 76.3566 115.589 76.7541 115.194C77.1515 114.8 77.6906 114.578 78.2528 114.578H167.42C167.982 114.578 168.521 114.8 168.919 115.194C169.316 115.589 169.539 116.124 169.539 116.682C169.539 117.241 169.316 117.776 168.919 118.171C168.521 118.565 167.982 118.787 167.42 118.787Z" fill="#E6E6E6"/>
<path d="M137.501 128.287H108.172C107.61 128.287 107.071 128.066 106.673 127.671C106.276 127.276 106.052 126.741 106.052 126.183C106.052 125.625 106.276 125.089 106.673 124.695C107.071 124.3 107.61 124.078 108.172 124.078H137.501C138.064 124.078 138.603 124.3 139 124.695C139.398 125.089 139.621 125.625 139.621 126.183C139.621 126.741 139.398 127.276 139 127.671C138.603 128.066 138.064 128.287 137.501 128.287Z" fill="#E6E6E6"/>
<path d="M137.501 147.559H108.172C107.61 147.559 107.071 147.337 106.673 146.942C106.276 146.547 106.052 146.012 106.052 145.454C106.052 144.896 106.276 144.36 106.673 143.966C107.071 143.571 107.61 143.349 108.172 143.349H137.501C138.064 143.349 138.603 143.571 139 143.966C139.398 144.36 139.621 144.896 139.621 145.454C139.621 146.012 139.398 146.547 139 146.942C138.603 147.337 138.064 147.559 137.501 147.559Z" fill="#E6E6E6"/>
<path d="M137.501 157.429H108.172C107.893 157.429 107.618 157.375 107.361 157.269C107.103 157.163 106.87 157.008 106.673 156.813C106.476 156.617 106.32 156.385 106.214 156.13C106.107 155.875 106.052 155.601 106.052 155.325C106.052 155.048 106.107 154.775 106.214 154.519C106.32 154.264 106.476 154.032 106.673 153.836C106.87 153.641 107.103 153.486 107.361 153.38C107.618 153.274 107.893 153.22 108.172 153.22H137.501C137.78 153.22 138.055 153.274 138.312 153.38C138.57 153.486 138.803 153.641 139 153.836C139.197 154.032 139.353 154.264 139.459 154.519C139.566 154.775 139.621 155.048 139.621 155.325C139.621 155.601 139.566 155.875 139.459 156.13C139.353 156.385 139.197 156.617 139 156.813C138.803 157.008 138.57 157.163 138.312 157.269C138.055 157.375 137.78 157.429 137.501 157.429Z" fill="#E6E6E6"/>
<path d="M153.95 137.788H91.7225C91.1604 137.788 90.6213 137.566 90.2238 137.171C89.8263 136.777 89.603 136.241 89.603 135.683C89.603 135.125 89.8263 134.59 90.2238 134.195C90.6213 133.8 91.1604 133.579 91.7225 133.579H153.95C154.512 133.579 155.051 133.8 155.449 134.195C155.846 134.59 156.069 135.125 156.069 135.683C156.069 136.241 155.846 136.777 155.449 137.171C155.051 137.566 154.512 137.788 153.95 137.788Z" fill="#E6E6E6"/>
<path d="M165.936 177.638H155.286C154.33 177.638 153.414 177.261 152.738 176.59C152.062 175.919 151.682 175.009 151.682 174.06C151.682 173.11 152.062 172.2 152.738 171.529C153.414 170.858 154.33 170.481 155.286 170.481H165.936C166.892 170.481 167.808 170.858 168.484 171.529C169.16 172.2 169.54 173.11 169.54 174.06C169.54 175.009 169.16 175.919 168.484 176.59C167.808 177.261 166.892 177.638 165.936 177.638Z" fill="url(#paint5_linear_2559_178)"/>
<path d="M50.2138 151.663C60.4518 151.663 68.7514 143.422 68.7514 133.256C68.7514 123.09 60.4518 114.848 50.2138 114.848C39.9758 114.848 31.6763 123.09 31.6763 133.256C31.6763 143.422 39.9758 151.663 50.2138 151.663Z" fill="url(#paint6_linear_2559_178)"/>
<path d="M267.14 245H0.490543C0.360701 245 0.236309 244.948 0.14463 244.857C0.0529508 244.766 0.00146484 244.642 0.00146484 244.513C0.00146484 244.384 0.0529508 244.26 0.14463 244.169C0.236309 244.078 0.360701 244.026 0.490543 244.026H267.14C267.27 244.026 267.395 244.078 267.486 244.169C267.578 244.26 267.629 244.384 267.629 244.513C267.629 244.642 267.578 244.766 267.486 244.857C267.395 244.948 267.27 245 267.14 245Z" fill="#CACACA"/>
<path d="M100.433 81.033C100.819 81.033 101.132 80.7224 101.132 80.3393C101.132 79.9561 100.819 79.6455 100.433 79.6455C100.047 79.6455 99.7344 79.9561 99.7344 80.3393C99.7344 80.7224 100.047 81.033 100.433 81.033Z" fill="white"/>
</g>
<defs>
<linearGradient id="paint0_linear_2559_178" x1="213.184" y1="45.7586" x2="242.685" y2="45.7586" gradientUnits="userSpaceOnUse">
<stop stop-color="#2D9C00"/>
<stop offset="0.4" stop-color="#36A300"/>
<stop offset="1" stop-color="#4DB600"/>
</linearGradient>
<linearGradient id="paint1_linear_2559_178" x1="131.839" y1="39.4271" x2="154.081" y2="39.4271" gradientUnits="userSpaceOnUse">
<stop stop-color="#2D9C00"/>
<stop offset="0.4" stop-color="#36A300"/>
<stop offset="1" stop-color="#4DB600"/>
</linearGradient>
<linearGradient id="paint2_linear_2559_178" x1="155.446" y1="86.4164" x2="163.352" y2="86.4164" gradientUnits="userSpaceOnUse">
<stop stop-color="#2D9C00"/>
<stop offset="0.4" stop-color="#36A300"/>
<stop offset="1" stop-color="#4DB600"/>
</linearGradient>
<linearGradient id="paint3_linear_2559_178" x1="221.196" y1="217.044" x2="234.123" y2="217.044" gradientUnits="userSpaceOnUse">
<stop stop-color="#2D9C00"/>
<stop offset="0.4" stop-color="#36A300"/>
<stop offset="1" stop-color="#4DB600"/>
</linearGradient>
<linearGradient id="paint4_linear_2559_178" x1="228.493" y1="137.576" x2="258.149" y2="137.576" gradientUnits="userSpaceOnUse">
<stop stop-color="#2D9C00"/>
<stop offset="0.4" stop-color="#36A300"/>
<stop offset="1" stop-color="#4DB600"/>
</linearGradient>
<linearGradient id="paint5_linear_2559_178" x1="151.684" y1="174.061" x2="169.54" y2="174.061" gradientUnits="userSpaceOnUse">
<stop stop-color="#2D9C00"/>
<stop offset="0.4" stop-color="#36A300"/>
<stop offset="1" stop-color="#4DB600"/>
</linearGradient>
<linearGradient id="paint6_linear_2559_178" x1="31.6807" y1="133.262" x2="68.7514" y2="133.262" gradientUnits="userSpaceOnUse">
<stop stop-color="#2D9C00"/>
<stop offset="0.4" stop-color="#36A300"/>
<stop offset="1" stop-color="#4DB600"/>
</linearGradient>
<clipPath id="clip0_2559_178">
<rect width="300" height="245" fill="white"/>
</clipPath>
</defs>
</svg>
