<svg width="300" height="300" viewBox="0 0 300 300" fill="none" xmlns="http://www.w3.org/2000/svg">
<path d="M81.786 75.822C76.3342 75.822 71.1057 73.6562 67.2507 69.8013C63.3957 65.9463 61.23 60.7178 61.23 55.266C61.23 49.8142 63.3957 44.5857 67.2507 40.7307C71.1057 36.8757 76.3342 34.71 81.786 34.71C87.2378 34.71 92.4663 36.8757 96.3213 40.7307C100.176 44.5857 102.342 49.8142 102.342 55.266C102.342 60.7178 100.176 65.9463 96.3213 69.8013C92.4663 73.6562 87.2378 75.822 81.786 75.822Z" fill="#455A64"/>
<path d="M76.7159 50.688H72.4619V64.434H76.7159V50.688Z" fill="white"/>
<path d="M74.5677 48.8879C75.0707 48.8927 75.5637 48.7479 75.9842 48.4719C76.4048 48.1959 76.7338 47.8012 76.9296 47.3379C77.1254 46.8746 77.179 46.3635 77.0838 45.8696C76.9886 45.3757 76.7488 44.9213 76.3949 44.5639C76.0409 44.2066 75.5887 43.9625 75.0958 43.8626C74.6028 43.7627 74.0913 43.8115 73.6261 44.0029C73.1609 44.1943 72.7631 44.5195 72.4832 44.9374C72.2032 45.3553 72.0537 45.8469 72.0537 46.3499C72.0521 47.0194 72.3157 47.6622 72.7868 48.1378C73.258 48.6135 73.8983 48.8831 74.5677 48.8879Z" fill="white"/>
<path d="M83.5196 57.216C83.5196 55.284 84.4076 54.132 86.1116 54.132C87.6716 54.132 88.4276 55.236 88.4276 57.216V64.416H92.6576V55.728C92.6576 52.044 90.5756 50.268 87.6596 50.268C86.8326 50.2573 86.0169 50.4605 85.2915 50.8579C84.5662 51.2553 83.9558 51.8333 83.5196 52.536V50.688H79.4336V64.428H83.5196V57.216Z" fill="white"/>
<path d="M109.332 14.334L112.146 19.476L117.294 22.296L112.146 25.11L109.332 30.252L106.518 25.11L101.37 22.296L106.518 19.476L109.332 14.334Z" fill="#F5F5F5"/>
<path d="M226.722 153.762L228.834 157.626L232.692 159.732L228.834 161.844L226.722 165.708L224.61 161.844L220.752 159.732L224.61 157.626L226.722 153.762Z" fill="#B1B1B1"/>
<path d="M232.692 134.706L233.646 136.446L235.386 137.4L233.646 138.354L232.692 140.094L231.744 138.354L229.998 137.4L231.744 136.446L232.692 134.706Z" fill="#B1B1B1"/>
<path d="M89.2257 16.2659L90.1797 18.0119L91.9197 18.9599L90.1797 19.9139L89.2257 21.6539L88.2777 19.9139L86.5317 18.9599L88.2777 18.0119L89.2257 16.2659Z" fill="#B1B1B1"/>
<path d="M41.4778 178.056C42.5849 177.549 43.5192 176.728 44.1654 175.696C44.8115 174.664 45.1412 173.465 45.1138 172.248C45.1138 168.81 42.4438 166.05 39.2218 166.074C35.9998 166.098 33.4138 168.912 33.4438 172.35C33.4351 173.577 33.7908 174.78 34.4658 175.805C35.1408 176.831 36.1048 177.633 37.2358 178.11C28.2718 179.58 28.7998 189.336 28.7998 189.336L50.0338 189.156C50.0338 189.156 50.3998 179.286 41.4778 178.056Z" fill="#B1B1B1"/>
<path d="M245.184 242.364C245.034 241.594 244.616 240.903 244.004 240.413C243.392 239.924 242.625 239.667 241.841 239.69C241.058 239.713 240.308 240.014 239.725 240.539C239.143 241.064 238.766 241.779 238.662 242.556C238.553 241.78 238.172 241.068 237.587 240.547C237.002 240.026 236.251 239.73 235.467 239.711C234.684 239.692 233.919 239.952 233.31 240.445C232.701 240.937 232.286 241.63 232.14 242.4C231.983 243.538 232.271 244.692 232.944 245.622C233.61 246.539 234.393 247.366 235.272 248.082C236.472 249.144 237.558 250.134 238.746 251.19C239.946 250.122 240.924 249.12 242.1 248.052C242.976 247.329 243.752 246.494 244.41 245.568C245.067 244.638 245.344 243.492 245.184 242.364Z" fill="#B1B1B1"/>
<path d="M259.014 115.89L261.288 115.44L264.888 107.532L263.988 102.99C263.988 102.99 267.462 102.078 268.23 108.108C268.998 114.138 269.142 112.536 269.142 112.536C269.142 112.536 276.612 111.084 277.362 111.606C277.908 111.99 279.582 119.37 280.458 123.378C280.7 124.339 280.614 125.353 280.212 126.259C279.811 127.165 279.118 127.91 278.244 128.376C277.995 128.499 277.73 128.587 277.458 128.64C275.598 129.012 265.782 129.384 265.782 129.384L261.852 130.164L259.014 115.89Z" fill="#B1B1B1"/>
<path d="M252.252 115.932L256.734 131.22L260.634 130.446L257.61 115.2L252.252 115.932Z" fill="#B1B1B1"/>
<path d="M282.282 281.592C282.282 281.682 222.78 281.748 149.4 281.748C76.02 281.748 16.5 281.682 16.5 281.592C16.5 281.502 75.99 281.436 149.4 281.436C222.81 281.436 282.282 281.508 282.282 281.592Z" fill="#293826"/>
<path d="M236.058 109.89C230.243 112.716 223.544 113.118 217.433 111.006C211.323 108.894 206.301 104.442 203.472 98.6279C200.646 92.8131 200.244 86.1138 202.356 80.0031C204.468 73.8924 208.92 68.8706 214.734 66.0419C217.613 64.6416 220.74 63.8221 223.936 63.6302C227.131 63.4384 230.334 63.8779 233.36 64.9237C236.386 65.9695 239.176 67.601 241.571 69.7252C243.967 71.8495 245.92 74.4247 247.32 77.3039C248.72 80.183 249.54 83.3097 249.732 86.5055C249.924 89.7012 249.484 92.9035 248.438 95.9295C247.392 98.9554 245.761 101.746 243.637 104.141C241.512 106.536 238.937 108.49 236.058 109.89Z" fill="url(#paint0_linear_3318_4635)"/>
<path d="M219.372 93.4139C219.462 93.4118 219.549 93.3898 219.629 93.3495C219.709 93.3091 219.779 93.2515 219.833 93.1808C219.888 93.11 219.926 93.028 219.945 92.9407C219.964 92.8533 219.963 92.7628 219.942 92.6759C219.882 92.3819 219.72 91.6379 219.66 91.3319C219.576 90.9059 219.474 90.7919 219.06 90.5999C217.985 90.1056 217.13 89.2317 216.66 88.1459C214.824 84.3659 216.006 79.6079 220.542 77.4059C224.556 75.4499 227.958 76.8059 229.542 80.1059C231.636 84.4199 231.498 88.9859 228.666 90.3659C228.313 90.5602 227.919 90.6689 227.517 90.6833C227.114 90.6977 226.713 90.6173 226.347 90.4486C225.981 90.2799 225.66 90.0276 225.41 89.712C225.159 89.3965 224.986 89.0265 224.904 88.6319C224.436 86.5199 224.304 84.0539 223.644 82.6859C223.044 81.4859 221.892 80.7599 220.536 81.4199C218.934 82.1999 218.454 84.4799 219.534 86.6939C219.919 87.5127 220.473 88.2406 221.16 88.8299C221.16 88.8299 222.9 96.5579 223.2 97.9139C223.8 100.608 225.732 103.314 225.918 103.62C225.945 103.654 225.98 103.68 226.021 103.694C226.062 103.709 226.106 103.711 226.148 103.702C226.19 103.693 226.228 103.671 226.259 103.641C226.289 103.61 226.311 103.572 226.32 103.53C226.374 103.266 227.136 99.9899 226.638 97.3259C226.5 96.5699 225.69 92.6999 225.69 92.6999C226.692 93.4379 228.636 93.5759 230.25 92.7899C235.05 90.4499 236.19 84.4799 233.334 78.6119C231.18 74.1779 225.408 71.8739 219.702 74.6519C212.592 78.1079 211.488 84.9419 213.552 89.1899C214.8 91.7639 216.87 93.5999 219.372 93.4139Z" fill="white"/>
<path d="M260.4 178.656C258.336 177.869 256.448 176.683 254.844 175.166C253.239 173.648 251.949 171.83 251.048 169.813C250.147 167.797 249.652 165.623 249.592 163.416C249.532 161.208 249.908 159.01 250.698 156.948C251.484 154.885 252.67 152.997 254.186 151.392C255.703 149.787 257.521 148.497 259.536 147.595C261.552 146.693 263.726 146.198 265.933 146.137C268.14 146.076 270.338 146.451 272.4 147.24C274.463 148.027 276.352 149.213 277.956 150.73C279.561 152.247 280.851 154.066 281.752 156.082C282.653 158.099 283.148 160.273 283.208 162.48C283.268 164.688 282.892 166.886 282.102 168.948C281.316 171.011 280.13 172.899 278.614 174.504C277.097 176.109 275.279 177.399 273.263 178.301C271.248 179.202 269.074 179.698 266.867 179.759C264.66 179.82 262.462 179.445 260.4 178.656Z" fill="url(#paint1_linear_3318_4635)"/>
<path fill-rule="evenodd" clip-rule="evenodd" d="M275.184 165.804C275.934 163.598 275.805 161.189 274.823 159.076C273.842 156.963 272.084 155.31 269.915 154.46C267.746 153.61 265.333 153.629 263.178 154.512C261.022 155.396 259.29 157.076 258.342 159.204C258.288 159.324 258.24 159.45 258.192 159.57C257.605 161.099 257.451 162.76 257.748 164.37L254.502 168.288L259.758 168.588C260.771 169.786 262.078 170.7 263.55 171.241C265.023 171.781 266.611 171.93 268.158 171.672C269.706 171.415 271.16 170.759 272.378 169.77C273.596 168.782 274.536 167.493 275.106 166.032C275.136 165.957 275.162 165.881 275.184 165.804ZM263.952 169.842C262.561 169.314 261.357 168.387 260.49 167.178L257.424 167.004L259.314 164.724C258.89 163.188 258.968 161.557 259.536 160.068C259.626 159.84 259.728 159.612 259.836 159.396C260.691 157.703 262.147 156.39 263.919 155.713C265.691 155.037 267.652 155.047 269.417 155.741C271.182 156.434 272.625 157.762 273.463 159.463C274.301 161.165 274.474 163.118 273.948 164.94C273.894 165.132 273.834 165.318 273.762 165.504C273.035 167.379 271.594 168.889 269.754 169.703C267.915 170.516 265.828 170.566 263.952 169.842Z" fill="white"/>
<path fill-rule="evenodd" clip-rule="evenodd" d="M269.88 165.96C269.706 165.78 268.884 164.892 268.716 164.76C268.548 164.628 268.428 164.532 268.212 164.688C267.996 164.844 267.414 165.15 267.246 165.24C267.078 165.33 266.946 165.3 266.778 165.12C266.259 164.644 265.826 164.082 265.5 163.458C265.209 162.871 265.007 162.244 264.9 161.598C264.864 161.346 265.008 161.274 265.152 161.214C265.296 161.154 265.452 161.052 265.602 160.974L265.716 160.902C265.794 160.841 265.869 160.775 265.938 160.704C265.989 160.659 266.027 160.602 266.05 160.538C266.072 160.473 266.077 160.404 266.064 160.338C266.064 160.218 266.022 159.042 266.004 158.568C265.986 158.094 265.788 158.094 265.668 158.046C265.548 157.998 265.416 157.926 265.278 157.878C265.172 157.84 265.059 157.824 264.947 157.831C264.834 157.838 264.724 157.868 264.624 157.92C264.307 158.053 264.02 158.25 263.783 158.499C263.545 158.747 263.362 159.043 263.244 159.366C263.157 159.603 263.102 159.852 263.082 160.104C263.048 160.681 263.115 161.26 263.28 161.814C263.334 161.988 263.844 164.64 265.632 166.272C267.42 167.904 267.534 167.628 267.93 167.736C268.244 167.797 268.568 167.789 268.879 167.712C269.19 167.636 269.48 167.492 269.73 167.292C269.985 167.038 270.159 166.715 270.228 166.362C270.162 166.248 270.048 166.14 269.88 165.96Z" fill="white"/>
<path d="M41.7781 100.944C38.3774 100.944 35.1161 99.5929 32.7115 97.1883C30.3069 94.7837 28.9561 91.5224 28.9561 88.1218C28.9561 84.7212 30.3069 81.4599 32.7115 79.0553C35.1161 76.6507 38.3774 75.2998 41.7781 75.2998C43.4619 75.2998 45.1292 75.6315 46.6848 76.2758C48.2405 76.9202 49.6539 77.8646 50.8446 79.0553C52.0352 80.2459 52.9797 81.6594 53.624 83.215C54.2684 84.7707 54.6001 86.438 54.6001 88.1218C54.6001 89.8056 54.2684 91.4729 53.624 93.0286C52.9797 94.5842 52.0352 95.9977 50.8446 97.1883C49.6539 98.379 48.2405 99.3234 46.6848 99.9678C45.1292 100.612 43.4619 100.944 41.7781 100.944Z" fill="url(#paint2_linear_3318_4635)"/>
<path d="M34.9502 92.3998C36.1816 93.1853 37.605 93.6178 39.0653 93.6502C40.5256 93.6825 41.9667 93.3135 43.2317 92.5832C44.4967 91.8529 45.537 90.7894 46.2392 89.5087C46.9414 88.2279 47.2787 86.779 47.2142 85.3198C47.7562 84.9262 48.2253 84.4409 48.6002 83.8858C48.0865 84.1112 47.5429 84.2607 46.9862 84.3298C47.573 83.9868 48.0162 83.4435 48.2342 82.7998C47.6788 83.13 47.0695 83.3596 46.4342 83.4778C46.0134 83.0175 45.4513 82.7104 44.8367 82.6049C44.222 82.4994 43.5897 82.6016 43.0395 82.8952C42.4894 83.1889 42.0526 83.6574 41.7981 84.2267C41.5437 84.7961 41.486 85.434 41.6342 86.0398C40.5194 85.9824 39.429 85.6916 38.4337 85.1862C37.4384 84.6808 36.5603 83.972 35.8562 83.1058C35.4994 83.7238 35.3908 84.4543 35.5524 85.1495C35.7139 85.8446 36.1335 86.4523 36.7262 86.8498C36.2803 86.8383 35.8438 86.7188 35.4542 86.5018C35.4468 87.1551 35.6674 87.7906 36.0781 88.2988C36.4888 88.8069 37.0638 89.156 37.7042 89.2858C37.2914 89.3982 36.8583 89.4146 36.4382 89.3338C36.6178 89.8897 36.9664 90.3757 37.4353 90.7242C37.9042 91.0726 38.4701 91.2661 39.0542 91.2778C37.8854 92.1738 36.4123 92.5765 34.9502 92.3998Z" fill="white"/>
<path d="M64.8001 244.566C59.1058 245.918 53.1076 244.954 48.1235 241.886C43.1395 238.818 39.5774 233.897 38.2201 228.204C37.5472 225.381 37.4372 222.454 37.8964 219.589C38.3556 216.724 39.3749 213.978 40.8962 211.507C42.4174 209.036 44.4107 206.889 46.7622 205.19C49.1136 203.49 51.777 202.27 54.6001 201.6C57.4209 200.928 60.3465 200.818 63.2099 201.276C66.0732 201.734 68.8182 202.752 71.2881 204.272C73.758 205.791 75.9044 207.782 77.6048 210.131C79.3052 212.48 80.5262 215.141 81.1981 217.962C81.8708 220.786 81.98 223.714 81.5197 226.58C81.0594 229.446 80.0385 232.193 78.5155 234.664C76.9924 237.135 74.9971 239.281 72.6437 240.98C70.2902 242.68 67.6249 243.898 64.8001 244.566Z" fill="#455A64"/>
<path d="M57.4021 213.432C60.5461 212.682 60.9241 212.604 62.2021 212.364C62.95 212.196 63.7212 212.157 64.4821 212.25C65.0391 212.317 65.5741 212.508 66.0481 212.808C66.5265 213.098 66.936 213.489 67.2481 213.954C67.6728 214.592 67.9853 215.298 68.1721 216.042C68.5261 217.272 68.6281 217.644 69.3721 220.788C70.1161 223.932 70.1941 224.31 70.4341 225.588C70.6052 226.335 70.6438 227.107 70.5481 227.868C70.4868 228.426 70.2957 228.963 69.9901 229.434C69.7036 229.913 69.3142 230.323 68.8501 230.634C68.2095 231.058 67.5014 231.371 66.7561 231.558C65.5561 231.912 65.1601 232.014 62.0161 232.758C58.8721 233.502 58.4941 233.586 57.2161 233.826C56.4666 233.997 55.6929 234.035 54.9301 233.94C54.3727 233.874 53.8373 233.684 53.3641 233.382C52.8905 233.083 52.4922 232.678 52.2001 232.2C51.7717 231.563 51.457 230.856 51.2701 230.112C50.9221 228.882 50.8201 228.516 50.0701 225.372C49.3201 222.228 49.2421 221.85 49.0021 220.572C48.8373 219.822 48.7988 219.049 48.8881 218.286C48.9619 217.731 49.1518 217.198 49.4454 216.721C49.739 216.245 50.1297 215.835 50.5921 215.52C51.2297 215.093 51.936 214.778 52.6801 214.59C53.8801 214.242 54.2821 214.14 57.4261 213.39M56.9221 211.266C53.7241 212.028 53.3221 212.136 52.0801 212.496C51.1083 212.737 50.185 213.143 49.3501 213.696C48.6418 214.186 48.043 214.817 47.5917 215.551C47.1403 216.284 46.8463 217.103 46.7281 217.956C46.6021 218.956 46.6467 219.971 46.8601 220.956C47.1061 222.222 47.1841 222.63 47.9461 225.828C48.7081 229.026 48.8161 229.428 49.1461 230.664C49.3861 231.636 49.7921 232.56 50.3461 233.394C50.8343 234.129 51.4799 234.746 52.2361 235.2C52.9638 235.658 53.783 235.951 54.6361 236.058C55.6363 236.185 56.6509 236.14 57.6361 235.926C58.9021 235.686 59.3101 235.602 62.5081 234.84C65.7061 234.078 66.1081 233.97 67.3441 233.64C68.3145 233.395 69.2372 232.989 70.0741 232.44C70.7897 231.957 71.3916 231.325 71.8381 230.586C72.2936 229.857 72.5882 229.038 72.7021 228.186C72.8263 227.185 72.7796 226.171 72.5641 225.186C72.3241 223.914 72.2401 223.512 71.4781 220.314C70.7161 217.116 70.6081 216.714 70.2781 215.472C70.0316 214.502 69.6262 213.579 69.0781 212.742C68.5952 212.028 67.9625 211.428 67.2241 210.984C66.4976 210.523 65.678 210.228 64.8241 210.12C63.8239 209.993 62.8094 210.038 61.8241 210.252C60.5521 210.498 60.1501 210.576 56.9521 211.338" fill="white"/>
<path d="M58.2601 217.038C57.0642 217.323 55.9797 217.956 55.1437 218.857C54.3077 219.759 53.7576 220.887 53.5631 222.101C53.3687 223.315 53.5385 224.559 54.0511 225.677C54.5637 226.794 55.3961 227.734 56.4431 228.379C57.49 229.023 58.7045 229.342 59.933 229.296C61.1614 229.25 62.3487 228.841 63.3447 228.121C64.3406 227.4 65.1005 226.4 65.5283 225.248C65.9561 224.095 66.0326 222.842 65.7481 221.646C65.365 220.043 64.3613 218.657 62.9574 217.793C61.5534 216.929 59.864 216.657 58.2601 217.038ZM60.6601 227.016C59.8832 227.199 59.0693 227.148 58.3213 226.87C57.5733 226.591 56.9248 226.096 56.4577 225.449C55.9905 224.802 55.7257 224.03 55.6967 223.233C55.6678 222.435 55.8759 221.646 56.2948 220.967C56.7138 220.287 57.3247 219.747 58.0505 219.415C58.7763 219.082 59.5843 218.973 60.3725 219.099C61.1607 219.226 61.8936 219.583 62.4788 220.126C63.0639 220.669 63.475 221.373 63.6601 222.15C63.7832 222.666 63.8032 223.202 63.719 223.726C63.6348 224.251 63.448 224.753 63.1693 225.205C62.8907 225.657 62.5256 226.05 62.095 226.36C61.6645 226.671 61.1768 226.894 60.6601 227.016Z" fill="white"/>
<path d="M65.9041 214.968C65.9697 215.247 65.9511 215.54 65.8506 215.808C65.7502 216.077 65.5723 216.31 65.3396 216.478C65.1068 216.646 64.8296 216.741 64.5429 216.751C64.2562 216.761 63.9729 216.686 63.7286 216.536C63.4844 216.385 63.2903 216.166 63.1707 215.905C63.0511 215.644 63.0115 215.354 63.0568 215.071C63.1021 214.787 63.2303 214.524 63.4252 214.313C63.6202 214.103 63.8731 213.955 64.1521 213.888C64.3381 213.843 64.5313 213.835 64.7204 213.864C64.9095 213.894 65.0908 213.961 65.2538 214.062C65.4168 214.162 65.5582 214.294 65.6699 214.45C65.7815 214.605 65.8611 214.781 65.9041 214.968Z" fill="white"/>
<path d="M232.086 225.132C230.734 225.133 229.394 224.867 228.144 224.35C226.894 223.833 225.759 223.074 224.802 222.118C223.845 221.162 223.086 220.027 222.568 218.777C222.051 217.528 221.784 216.188 221.784 214.836C221.784 213.483 222.051 212.144 222.568 210.894C223.086 209.645 223.845 208.509 224.802 207.553C225.759 206.597 226.894 205.839 228.144 205.322C229.394 204.805 230.734 204.539 232.086 204.54C233.44 204.537 234.781 204.802 236.032 205.318C237.283 205.835 238.42 206.593 239.378 207.549C240.336 208.505 241.096 209.641 241.615 210.892C242.133 212.142 242.4 213.482 242.4 214.836C242.4 216.189 242.133 217.53 241.615 218.78C241.096 220.03 240.336 221.166 239.378 222.123C238.42 223.079 237.283 223.837 236.032 224.353C234.781 224.87 233.44 225.134 232.086 225.132Z" fill="#455A64"/>
<path d="M230.514 221.058H233.022V214.8H234.768L234.96 212.7H233.022V211.5C233.022 211.008 233.124 210.81 233.622 210.81H234.984V208.626H233.244C231.378 208.626 230.538 209.448 230.538 211.026V212.706H229.2V214.8H230.502L230.514 221.058Z" fill="white"/>
<path d="M196.962 282.03L114.228 282C109.454 282 104.876 280.104 101.5 276.728C98.1244 273.352 96.228 268.774 96.228 264L96.264 56.5921C96.264 54.2253 96.7308 51.8817 97.6376 49.6955C98.5445 47.5092 99.8736 45.5233 101.549 43.8514C103.224 42.1795 105.213 40.8544 107.401 39.9519C109.589 39.0494 111.933 38.5873 114.3 38.5921L197.028 38.6401C201.802 38.6401 206.38 40.5365 209.756 43.9122C213.132 47.2878 215.028 51.8662 215.028 56.6401L214.992 264C214.996 266.369 214.532 268.715 213.628 270.905C212.723 273.094 211.395 275.083 209.72 276.758C208.045 278.433 206.056 279.761 203.866 280.666C201.677 281.57 199.331 282.034 196.962 282.03Z" fill="#293826"/>
<path d="M196.938 45.9122H180.894C179.841 45.9373 178.841 46.3779 178.111 47.1377C177.382 47.8975 176.982 48.915 177 49.9682V52.8782C177.012 53.4011 176.92 53.9212 176.731 54.4088C176.542 54.8964 176.258 55.3419 175.897 55.7198C175.535 56.0976 175.102 56.4004 174.623 56.6109C174.144 56.8213 173.629 56.9352 173.106 56.9462H141.84C141.317 56.9345 140.801 56.8198 140.322 56.6087C139.843 56.3976 139.41 56.0943 139.049 55.7159C138.687 55.3376 138.404 54.8917 138.214 54.4038C138.025 53.9158 137.934 53.3954 137.946 52.8722V49.9442C137.967 48.8884 137.569 47.8672 136.839 47.1038C136.11 46.3404 135.108 45.8969 134.052 45.8702H128.4H114.366C112.709 45.8662 111.067 46.1892 109.535 46.8206C108.003 47.4521 106.61 48.3796 105.437 49.55C104.264 50.7204 103.333 52.1107 102.698 53.6414C102.063 55.1721 101.736 56.813 101.736 58.4702L101.694 260.916C101.694 264.258 103.021 267.463 105.384 269.826C107.747 272.189 110.952 273.516 114.294 273.516L196.866 273.564C198.52 273.564 200.159 273.238 201.688 272.605C203.216 271.972 204.605 271.044 205.775 269.874C206.945 268.704 207.874 267.315 208.507 265.786C209.14 264.257 209.466 262.619 209.466 260.964L209.508 58.5122C209.508 55.1756 208.184 51.9753 205.828 49.6132C203.472 47.2511 200.274 45.9201 196.938 45.9122Z" fill="white"/>
<path d="M198.144 62.3581C198.144 62.4121 196.056 62.4721 193.488 62.4901C190.92 62.5081 188.826 62.4901 188.826 62.4361C188.826 62.3821 190.908 62.3161 193.482 62.2981C196.056 62.2801 198.144 62.3041 198.144 62.3581Z" fill="#293826"/>
<path d="M198.162 64.74C198.162 64.794 196.08 64.854 193.506 64.878C190.932 64.902 188.844 64.878 188.844 64.818C188.844 64.758 190.932 64.704 193.506 64.68C196.08 64.656 198.162 64.686 198.162 64.74Z" fill="#293826"/>
<path d="M198.186 67.1221C198.186 67.1761 196.098 67.2421 193.524 67.2601C190.95 67.2781 188.868 67.2601 188.862 67.2001C188.856 67.1401 190.95 67.0861 193.524 67.0621C196.098 67.0381 198.186 67.0681 198.186 67.1221Z" fill="#293826"/>
<path d="M165 227.646C164.712 227.691 164.421 227.711 164.13 227.706L161.766 227.754C159.774 227.784 157.014 227.802 153.966 227.802C150.918 227.802 148.158 227.802 146.166 227.754L143.802 227.706C143.511 227.711 143.22 227.691 142.932 227.646C143.219 227.597 143.511 227.577 143.802 227.586L146.166 227.532C148.158 227.532 150.918 227.49 153.966 227.49C157.014 227.49 159.768 227.49 161.766 227.532L164.13 227.586C164.421 227.577 164.713 227.597 165 227.646Z" fill="#455A64"/>
<path d="M199.662 233.07C199.662 233.16 186.96 233.226 171.294 233.226C155.628 233.226 142.926 233.16 142.926 233.07C142.926 232.98 155.628 232.914 171.294 232.914C186.96 232.914 199.662 232.986 199.662 233.07Z" fill="#455A64"/>
<path d="M181.932 238.2C181.932 238.29 173.202 238.356 162.432 238.356C151.662 238.356 142.926 238.29 142.926 238.2C142.926 238.11 151.656 238.044 162.432 238.044C173.208 238.044 181.932 238.092 181.932 238.2Z" fill="#455A64"/>
<path d="M200.784 248.118L199.02 246.348L197.34 248.022V242.958H200.778L200.784 248.118ZM199.02 246.126L199.074 246.18L200.628 247.74V243.12H197.502V247.65L199.02 246.126Z" fill="#293826"/>
<path d="M153.846 247.458L153.246 247.182C152.888 247.35 152.48 247.379 152.101 247.263C151.723 247.146 151.402 246.893 151.2 246.552C150.999 246.211 150.932 245.807 151.013 245.42C151.093 245.032 151.315 244.688 151.636 244.456C151.957 244.224 152.352 244.119 152.746 244.163C153.139 244.207 153.502 244.396 153.764 244.694C154.025 244.991 154.166 245.375 154.159 245.771C154.152 246.167 153.998 246.546 153.726 246.834L153.846 247.458ZM152.4 244.086C151.99 244.115 151.606 244.299 151.327 244.601C151.048 244.903 150.895 245.3 150.899 245.711C150.902 246.122 151.063 246.517 151.348 246.813C151.632 247.11 152.02 247.287 152.43 247.308C152.704 247.289 152.97 247.205 153.204 247.062L153.666 247.266L153.558 246.816C153.77 246.585 153.909 246.297 153.96 245.988C154.01 245.679 153.969 245.362 153.841 245.076C153.714 244.789 153.506 244.547 153.242 244.377C152.979 244.208 152.671 244.119 152.358 244.122L152.4 244.086Z" fill="#293826"/>
<path d="M157.842 247.2L157.134 245.46L155.796 244.26H159.036L157.842 247.2ZM156.096 244.362L157.236 245.406L157.836 246.888L158.856 244.338L156.096 244.362Z" fill="#293826"/>
<path d="M158.969 244.221L157.198 245.373L157.264 245.473L159.034 244.322L158.969 244.221Z" fill="#293826"/>
<path d="M148.74 244.596C148.692 244.365 148.564 244.158 148.378 244.011C148.193 243.865 147.961 243.789 147.725 243.797C147.489 243.805 147.263 243.896 147.088 244.054C146.912 244.213 146.798 244.428 146.766 244.662C146.734 244.425 146.618 244.208 146.439 244.049C146.26 243.89 146.03 243.8 145.791 243.796C145.552 243.791 145.319 243.873 145.135 244.025C144.951 244.177 144.827 244.391 144.786 244.626C144.74 244.972 144.828 245.322 145.032 245.604C145.235 245.882 145.473 246.132 145.74 246.348C146.106 246.666 146.436 246.948 146.796 247.284C147.156 246.96 147.456 246.654 147.816 246.33C148.08 246.109 148.314 245.855 148.512 245.574C148.713 245.29 148.794 244.939 148.74 244.596Z" fill="url(#paint3_linear_3318_4635)"/>
<path d="M204.396 252.6C204.396 252.6 204.396 252.402 204.396 252.036C204.396 251.67 204.396 251.112 204.396 250.392C204.396 248.946 204.396 246.792 204.366 244.056C204.366 238.542 204.336 230.52 204.312 220.458L204.414 220.56L108.468 220.614L108.624 220.458C108.624 231.63 108.624 242.46 108.624 252.6L108.474 252.45L177.132 252.516L197.172 252.558H202.572H203.964H204.444H203.982H202.608H197.262L177.252 252.6L108.492 252.672H108.336V252.6C108.336 242.46 108.336 231.63 108.336 220.458V220.302H108.504L204.45 220.356H204.552V220.458C204.552 230.544 204.51 238.59 204.498 244.122C204.498 246.87 204.498 248.988 204.498 250.434C204.498 251.142 204.498 251.682 204.498 252.054C204.498 252.426 204.396 252.6 204.396 252.6Z" fill="#293826"/>
<path d="M112.441 225.832L112.319 247.084L138.898 247.237L139.021 225.985L112.441 225.832Z" fill="#EBEBEB"/>
<path d="M139.014 225.972H138.504H137.052H131.598L112.398 225.93L112.542 225.792C112.512 232.122 112.476 239.37 112.44 247.038C112.47 247.08 112.146 246.744 112.284 246.882H114.114H115.914H119.514L126.414 246.924L138.858 247.014L138.732 247.146C138.792 240.762 138.846 235.47 138.888 231.75C138.888 229.902 138.93 228.45 138.942 227.436C138.942 226.95 138.942 226.572 138.942 226.296C138.942 226.02 138.942 225.894 138.942 225.894C138.942 225.894 138.942 226.014 138.942 226.266C138.942 226.518 138.942 226.908 138.942 227.388C138.942 228.39 138.942 229.836 138.942 231.672C138.942 235.41 138.942 240.732 138.942 247.146V247.272H138.81L126.366 247.224L119.466 247.188H115.866H114.066H112.236L112.074 247.026C112.128 239.352 112.17 232.104 112.212 225.78V225.636H112.356L131.616 225.81L137.016 225.882H138.438H138.798L139.014 225.972Z" fill="#293826"/>
<path d="M113.352 227.175L113.245 245.751L137.958 245.893L138.065 227.318L113.352 227.175Z" fill="#E0E0E0"/>
<path d="M113.232 245.736L121.932 234.24L127.236 241.494L130.884 237.654L137.946 245.88L113.232 245.736Z" fill="#F5F5F5"/>
<path d="M129.558 232.872C129.557 233.258 129.441 233.635 129.226 233.955C129.01 234.275 128.705 234.524 128.347 234.67C127.99 234.817 127.598 234.854 127.22 234.777C126.841 234.7 126.495 234.513 126.223 234.239C125.951 233.964 125.767 233.616 125.694 233.237C125.62 232.858 125.661 232.466 125.811 232.11C125.96 231.754 126.212 231.451 126.534 231.238C126.856 231.026 127.234 230.914 127.62 230.916C127.876 230.917 128.129 230.968 128.365 231.067C128.601 231.166 128.815 231.31 128.995 231.492C129.175 231.674 129.318 231.889 129.414 232.126C129.511 232.363 129.56 232.616 129.558 232.872Z" fill="#F5F5F5"/>
<path d="M157.254 88.1221C157.159 88.1382 157.061 88.1382 156.966 88.1221L156.156 88.1521L153.156 88.2061C150.63 88.2061 147.156 88.2481 143.28 88.2481C139.404 88.2481 135.93 88.2481 133.404 88.2061L130.404 88.1521L129.588 88.1221C129.495 88.1387 129.399 88.1387 129.306 88.1221C129.398 88.0993 129.493 88.0892 129.588 88.0921H130.404L133.404 88.0441C135.93 88.0141 139.404 87.9961 143.28 87.9961C147.156 87.9961 150.63 87.9961 153.156 88.0441L156.156 88.0921H156.966C157.063 88.0896 157.16 88.0997 157.254 88.1221Z" fill="#293826"/>
<path d="M196.518 205.59L193.902 202.962L191.4 205.452V197.928H196.512L196.518 205.59ZM193.902 202.638L193.98 202.716L196.29 205.032V198.168H191.634V204.9L193.902 202.638Z" fill="#293826"/>
<path d="M130.002 204.798L128.802 204.252C128.103 204.577 127.308 204.63 126.573 204.4C125.837 204.17 125.214 203.674 124.825 203.009C124.435 202.344 124.308 201.557 124.468 200.803C124.627 200.049 125.063 199.382 125.688 198.932C126.314 198.482 127.084 198.281 127.85 198.369C128.616 198.457 129.321 198.827 129.828 199.408C130.335 199.988 130.607 200.737 130.592 201.507C130.576 202.277 130.274 203.015 129.744 203.574L130.002 204.798ZM127.14 198.168C126.724 198.172 126.313 198.257 125.93 198.419C125.547 198.582 125.2 198.818 124.908 199.115C124.616 199.412 124.386 199.763 124.23 200.149C124.074 200.534 123.996 200.947 123.999 201.363C124.003 201.779 124.088 202.19 124.251 202.573C124.413 202.956 124.649 203.304 124.946 203.595C125.243 203.887 125.594 204.117 125.98 204.273C126.365 204.429 126.778 204.508 127.194 204.504C127.734 204.471 128.257 204.307 128.718 204.024L128.772 203.994L129.672 204.396L129.468 203.508L129.51 203.466C129.927 203.011 130.202 202.444 130.3 201.835C130.399 201.226 130.317 200.602 130.065 200.039C129.813 199.475 129.402 198.998 128.882 198.666C128.363 198.333 127.757 198.16 127.14 198.168Z" fill="#293826"/>
<path d="M137.874 204.276L136.47 200.85L133.842 198.45L140.226 198.402L137.874 204.276ZM134.436 198.678L136.68 200.736L137.88 203.652L139.884 198.636L134.436 198.678Z" fill="#293826"/>
<path d="M140.099 198.392L136.619 200.656L136.746 200.852L140.226 198.588L140.099 198.392Z" fill="#293826"/>
<path d="M119.958 199.2C119.868 198.741 119.617 198.329 119.25 198.037C118.884 197.746 118.426 197.594 117.958 197.609C117.49 197.624 117.042 197.805 116.696 198.12C116.349 198.434 116.125 198.862 116.064 199.326C115.995 198.864 115.765 198.441 115.413 198.133C115.062 197.824 114.613 197.651 114.145 197.643C113.678 197.635 113.223 197.793 112.861 198.089C112.5 198.386 112.255 198.8 112.17 199.26C112.08 199.939 112.254 200.626 112.656 201.18C113.059 201.727 113.529 202.221 114.054 202.65C114.768 203.25 115.422 203.85 116.136 204.492C116.832 203.856 117.432 203.256 118.134 202.614C118.653 202.178 119.114 201.678 119.508 201.126C119.899 200.565 120.06 199.876 119.958 199.2Z" fill="url(#paint4_linear_3318_4635)"/>
<path d="M119.376 92.454C121.768 92.454 123.708 90.5145 123.708 88.122C123.708 85.7295 121.768 83.79 119.376 83.79C116.983 83.79 115.044 85.7295 115.044 88.122C115.044 90.5145 116.983 92.454 119.376 92.454Z" fill="#EBEBEB"/>
<path d="M194.886 180.75C194.886 180.84 176.73 180.912 154.338 180.912C131.946 180.912 113.784 180.84 113.784 180.75C113.784 180.66 131.94 180.594 154.338 180.594C176.736 180.594 194.886 180.666 194.886 180.75Z" fill="#455A64"/>
<path d="M194.886 174C194.886 174.084 176.73 174.156 154.338 174.156C131.946 174.156 113.784 174.084 113.784 174C113.784 173.916 131.94 173.844 154.338 173.844C176.736 173.844 194.886 173.916 194.886 174Z" fill="#455A64"/>
<path d="M157.926 187.596C157.926 187.68 148.044 187.752 135.858 187.752C123.672 187.752 113.784 187.68 113.784 187.596C113.784 187.512 123.666 187.44 135.858 187.44C148.05 187.44 157.926 187.512 157.926 187.596Z" fill="#455A64"/>
<path d="M152.484 261.174C152.478 261.515 152.371 261.847 152.177 262.127C151.984 262.407 151.711 262.624 151.394 262.75C151.077 262.876 150.73 262.905 150.397 262.834C150.063 262.763 149.758 262.595 149.52 262.351C149.282 262.107 149.121 261.798 149.058 261.463C148.995 261.128 149.033 260.781 149.166 260.468C149.3 260.154 149.523 259.887 149.808 259.7C150.093 259.512 150.427 259.414 150.768 259.416C150.996 259.418 151.222 259.466 151.432 259.555C151.642 259.645 151.832 259.775 151.991 259.939C152.151 260.102 152.276 260.295 152.361 260.507C152.445 260.719 152.487 260.946 152.484 261.174Z" fill="#293826"/>
<path d="M157.8 261.198C157.793 261.537 157.686 261.867 157.492 262.145C157.298 262.424 157.027 262.639 156.711 262.764C156.396 262.888 156.05 262.917 155.718 262.846C155.387 262.775 155.083 262.608 154.846 262.365C154.609 262.122 154.449 261.815 154.386 261.481C154.323 261.148 154.36 260.803 154.493 260.491C154.625 260.178 154.846 259.912 155.13 259.725C155.413 259.538 155.745 259.439 156.084 259.44C156.313 259.442 156.538 259.488 156.749 259.578C156.959 259.667 157.149 259.797 157.309 259.961C157.468 260.124 157.594 260.318 157.678 260.53C157.763 260.743 157.804 260.97 157.8 261.198Z" fill="#293826"/>
<path d="M163.158 261.222C163.151 261.561 163.044 261.891 162.85 262.169C162.656 262.448 162.385 262.663 162.069 262.788C161.753 262.912 161.408 262.941 161.076 262.87C160.745 262.799 160.441 262.632 160.204 262.389C159.967 262.146 159.807 261.839 159.744 261.505C159.681 261.172 159.718 260.827 159.851 260.515C159.983 260.202 160.204 259.936 160.488 259.749C160.771 259.562 161.103 259.463 161.442 259.464C161.67 259.466 161.896 259.514 162.106 259.604C162.315 259.693 162.506 259.823 162.665 259.987C162.824 260.15 162.95 260.343 163.035 260.555C163.119 260.767 163.161 260.994 163.158 261.222Z" fill="#293826"/>
<path d="M204.972 96.6902H109.014V155.37H204.972V96.6902Z" fill="#E0E0E0"/>
<path d="M117.876 155.388L145.368 118.584L162.42 141.6L173.97 129.288L196.632 155.364L117.876 155.388Z" fill="#F5F5F5"/>
<path d="M169.644 114.066C169.645 115.293 169.282 116.494 168.601 117.515C167.92 118.536 166.952 119.332 165.818 119.802C164.685 120.273 163.437 120.396 162.233 120.158C161.029 119.919 159.923 119.329 159.055 118.461C158.187 117.594 157.595 116.488 157.355 115.285C157.116 114.081 157.238 112.833 157.708 111.699C158.177 110.565 158.972 109.596 159.992 108.914C161.013 108.232 162.213 107.868 163.44 107.868C165.084 107.868 166.661 108.521 167.825 109.683C168.988 110.845 169.642 112.422 169.644 114.066Z" fill="#F5F5F5"/>
<path d="M204.714 209.91C204.714 208.656 204.654 155.646 204.57 77.166L204.714 77.31H108.768L108.924 77.154C108.924 126.798 108.924 172.74 108.924 209.898L108.792 209.772L204.75 209.898L108.792 210.03H108.666V209.898C108.666 172.74 108.666 126.798 108.636 77.154V76.998H108.804H204.75H204.894V77.136C204.864 116.418 204.84 149.616 204.822 173.004C204.822 184.68 204.792 193.902 204.786 200.214C204.786 203.358 204.786 205.776 204.786 207.414C204.786 208.224 204.786 208.842 204.786 209.262C204.786 209.682 204.714 209.91 204.714 209.91Z" fill="#293826"/>
<path d="M121.746 62.4744L116.87 58.2096C116.712 58.0709 116.503 57.9959 116.288 58.0002C116.072 58.0044 115.867 58.0877 115.715 58.2325L111.23 62.496L111 62.7147V69H115.321V65.0783H117.679V69H122V62.6964L121.746 62.4744ZM116.305 58.747C116.311 58.747 116.307 58.7484 116.304 58.7512C116.301 58.7484 116.298 58.747 116.305 58.747ZM121.214 68.253H118.464V65.0783C118.464 64.8802 118.382 64.6902 118.234 64.5501C118.087 64.4101 117.887 64.3314 117.679 64.3314H115.321C115.113 64.3314 114.913 64.4101 114.766 64.5501C114.618 64.6902 114.536 64.8802 114.536 65.0783V68.253H111.786V63.0241L116.305 58.7607C116.305 58.7604 116.305 58.7601 116.305 58.7598L121.214 63.0241V68.253Z" fill="#293826"/>
<path d="M159.6 226.38L161.724 219.246C162.096 217.698 162.588 215.874 163.248 213.792C163.848 211.92 165.372 209.952 166.764 208.536C168.93 206.334 169.962 206.322 171.414 205.152C171.546 205.068 171.696 204.942 171.822 204.876C172.097 204.727 172.338 204.522 172.53 204.276C173.784 202.92 172.578 200.814 170.028 201.018C168.114 201.168 164.982 201.714 159.894 206.964C159.828 207.048 159.762 207.114 159.702 207.192C157.032 210.666 154.524 200.754 154.068 197.064C153.98 196.492 153.764 195.948 153.436 195.47C153.109 194.993 152.678 194.596 152.176 194.308C151.674 194.02 151.114 193.848 150.537 193.806C149.96 193.764 149.38 193.852 148.842 194.064L136.446 199.86C135.264 199.517 134.003 199.559 132.846 199.98C131.979 200.285 131.256 200.901 130.819 201.71C130.381 202.519 130.261 203.462 130.482 204.354L135.516 224.4L120.75 273.54H152.58L159.6 226.38Z" fill="#FFBE9D"/>
<path d="M184.08 181.248L174.24 200.532L169.32 199.164L144.6 219.282C143.591 220.108 142.3 220.507 141.001 220.395C139.702 220.283 138.499 219.668 137.646 218.682L128.226 207.744C128.226 207.744 147.216 199.566 150.726 192.798C154.236 186.03 150.18 184.488 150.18 184.488L159.114 174.336L184.08 181.248Z" fill="url(#paint5_linear_3318_4635)"/>
<path d="M171.318 141.864C171.318 141.864 156.918 138.678 136.644 119.19C116.37 99.7021 106.854 73.8001 104.4 73.9441C101.946 74.0881 91.086 69.0421 70.482 113.856C49.878 158.67 57.996 169.056 62.082 168.996C66.168 168.936 94.014 161.154 111.402 163.128C128.79 165.102 151.14 174.168 151.14 174.168L171.318 141.864Z" fill="url(#paint6_linear_3318_4635)"/>
<path d="M201.912 166.29L196.998 175.632L194.796 179.832C193.343 182.597 190.884 184.698 187.927 185.703C184.969 186.708 181.739 186.539 178.902 185.232L148.032 174.474L166.032 133.434L196.872 149.868C199.709 151.386 201.831 153.965 202.776 157.041C203.72 160.117 203.409 163.442 201.912 166.29Z" fill="url(#paint7_linear_3318_4635)"/>
<g opacity="0.4">
<path d="M201.912 166.29L196.998 175.632L194.796 179.832C193.343 182.597 190.884 184.698 187.927 185.703C184.969 186.708 181.739 186.539 178.902 185.232L148.032 174.474L166.032 133.434L196.872 149.868C199.709 151.386 201.831 153.965 202.776 157.041C203.72 160.117 203.409 163.442 201.912 166.29Z" fill="black"/>
</g>
<path d="M72.1262 114.672C61.1642 138.948 56.5982 160.584 61.9262 162.99C67.2542 165.396 80.4722 147.672 91.4342 123.39C102.396 99.1081 106.962 77.4841 101.634 75.0721C96.3062 72.6601 83.0882 90.3961 72.1262 114.672Z" fill="url(#paint8_linear_3318_4635)"/>
<g opacity="0.5">
<path d="M72.1262 114.672C61.1642 138.948 56.5982 160.584 61.9262 162.99C67.2542 165.396 80.4722 147.672 91.4342 123.39C102.396 99.1081 106.962 77.4841 101.634 75.0721C96.3062 72.6601 83.0882 90.3961 72.1262 114.672Z" fill="black"/>
</g>
<path d="M204.564 179.79L196.194 177.162L201.372 167.322L207.648 171.222L204.564 179.79Z" fill="url(#paint9_linear_3318_4635)"/>
<g opacity="0.6">
<path d="M201.372 167.322L196.194 177.162L197.916 177.702L202.122 167.784L201.372 167.322Z" fill="black"/>
</g>
<path d="M195.6 169.59C195.48 169.86 191.304 168.24 186.276 165.99C181.248 163.74 177.276 161.652 177.39 161.382C177.504 161.112 181.686 162.738 186.72 165.012C191.754 167.286 195.726 169.32 195.6 169.59Z" fill="url(#paint10_linear_3318_4635)"/>
<path d="M198.18 163.728C198.048 163.992 194.268 162.402 189.738 160.17C185.208 157.938 181.644 155.916 181.776 155.646C181.908 155.376 185.682 156.972 190.212 159.204C194.742 161.436 198.312 163.458 198.18 163.728Z" fill="url(#paint11_linear_3318_4635)"/>
<path d="M192.36 175.74C192.318 175.884 191.322 175.656 189.738 175.14C188.946 174.894 188.004 174.582 186.966 174.228C185.928 173.874 184.866 173.31 183.72 172.788C179.142 170.664 175.644 168.588 175.758 168.336C175.872 168.084 179.634 169.71 184.158 171.816C185.298 172.332 186.354 172.896 187.35 173.31C188.346 173.724 189.24 174.09 189.99 174.426C191.49 175.116 192.402 175.596 192.36 175.74Z" fill="url(#paint12_linear_3318_4635)"/>
<path d="M94.476 109.278C94.476 109.278 81.96 101.514 75.114 118.428C68.268 135.342 81.432 138.12 81.432 138.12C87.1167 129.169 91.5081 119.459 94.476 109.278Z" fill="url(#paint13_linear_3318_4635)"/>
<g opacity="0.5">
<path d="M107.79 89.1182C107.868 89.1182 107.688 90.2822 107.304 92.3522C106.92 94.4222 106.344 97.4162 105.54 101.1L103.8 107.022C103.484 108.082 103.158 109.18 102.822 110.316L102.312 112.038C102.126 112.638 101.88 113.184 101.664 113.766L98.8379 121.062C98.5919 121.698 98.34 122.334 98.094 122.976C97.848 123.618 97.494 124.23 97.212 124.866L95.3519 128.706L93.4859 132.54C93.1679 133.14 92.886 133.812 92.544 134.4C92.202 134.988 91.8419 135.6 91.4999 136.17L87.51 142.908C87.186 143.436 86.9099 143.982 86.5499 144.486L85.512 145.956L83.5199 148.764L79.9199 153.786C77.5199 156.684 75.5159 158.97 74.1359 160.56C73.4581 161.421 72.7095 162.224 71.8979 162.96C72.462 162.024 73.1043 161.136 73.8179 160.308C75.1499 158.61 77.0279 156.234 79.3319 153.312L82.7819 148.254L84.714 145.44C85.05 144.96 85.386 144.468 85.728 143.97C86.07 143.472 86.3279 142.926 86.6579 142.392L90.5999 135.66L91.626 133.896C91.98 133.296 92.2259 132.696 92.5559 132.048L94.4039 128.238C95.0039 126.948 95.6459 125.682 96.2579 124.428C96.5459 123.828 96.8939 123.192 97.1339 122.556L97.8839 120.66L100.752 113.46C100.974 112.86 101.226 112.326 101.418 111.75C101.61 111.174 101.772 110.61 101.946 110.046L102.966 106.788L104.808 100.938L106.89 92.2982C107.099 91.2145 107.4 90.1506 107.79 89.1182Z" fill="black"/>
</g>
<g opacity="0.4">
<path d="M131.214 206.4C132.36 208.476 133.524 210.6 135.21 212.238C136.896 213.876 139.2 215.04 141.6 214.8C144 214.56 146.19 212.604 146.214 210.24C147.342 211.086 149.076 210.63 150.012 209.568C150.948 208.506 151.254 207.036 151.362 205.626C152.898 206.532 155.034 205.818 156.06 204.36C156.531 203.601 156.829 202.747 156.933 201.859C157.036 200.971 156.943 200.072 156.66 199.224C156.075 197.537 155.244 195.946 154.194 194.502C155.394 194.598 156.63 194.682 157.686 194.148C158.742 193.614 159.486 192.21 158.844 191.202C158.422 190.639 157.81 190.249 157.122 190.104C155.268 189.504 153.972 189.06 152.04 189.282C151.596 189.282 152.814 194.37 140.712 201.318C133.53 205.428 131.214 206.4 131.214 206.4Z" fill="black"/>
</g>
<path d="M158.466 213.72C158.466 213.774 157.656 213.618 156.348 213.654C154.648 213.695 152.977 214.096 151.444 214.831C149.911 215.567 148.552 216.62 147.456 217.92C146.61 218.916 146.256 219.642 146.178 219.612C146.228 219.425 146.307 219.247 146.412 219.084C146.669 218.627 146.96 218.19 147.282 217.776C148.361 216.407 149.739 215.304 151.311 214.551C152.882 213.798 154.606 213.415 156.348 213.432C156.871 213.435 157.393 213.484 157.908 213.576C158.101 213.591 158.29 213.64 158.466 213.72Z" fill="#EB996E"/>
<path d="M132 203.154C133.95 205.026 135.282 207.096 137.328 208.98C138.258 209.838 139.728 211.458 140.928 211.674C142.128 211.89 142.968 211.728 143.46 210.564C143.862 209.622 143.142 208.332 142.65 207.564C141.348 205.518 140.1 203.922 139.128 202.332C138.666 201.588 139.26 201.432 139.476 201.78C140.412 202.752 141.816 203.58 142.656 204.654C143.808 206.1 144.012 208.026 147.024 207.414C147.427 207.349 147.809 207.191 148.14 206.952C149.274 206.082 149.34 204.552 148.848 203.352C148.423 202.426 147.856 201.572 147.168 200.82C148.452 202.266 149.85 203.82 151.89 203.952C152.466 204.022 153.05 203.911 153.561 203.635C154.071 203.359 154.483 202.931 154.74 202.41C155.34 201.042 154.482 199.716 153.612 198.648C152.072 196.749 150.359 194.998 148.494 193.416C147.798 192.831 146.919 192.506 146.01 192.498C144.954 192.498 143.61 192.69 143.01 193.602C142.667 194.042 142.418 194.547 142.276 195.087C142.135 195.626 142.105 196.189 142.188 196.74C142.188 196.74 139.548 195.402 137.424 196.8C136.117 197.718 135.177 199.07 134.772 200.616L132 203.154Z" fill="#FFBE9D"/>
<path d="M146.07 191.922C145.648 191.432 145.386 190.824 145.32 190.18C145.253 189.537 145.385 188.888 145.698 188.322C146.148 187.44 146.712 186.582 147.288 186.39C149.802 185.544 160.794 187.446 160.692 189.882C160.59 192.318 159.786 193.482 153.828 192.624C152.778 192.474 151.134 192.27 151.134 192.27L149.694 194.43L146.07 191.922Z" fill="#FFBE9D"/>
<path d="M148.038 202.134C146.595 199.755 144.492 197.848 141.984 196.644C142.393 196.71 142.787 196.848 143.148 197.052C144.954 197.925 146.47 199.3 147.516 201.012C147.758 201.35 147.935 201.731 148.038 202.134Z" fill="#EB996E"/>
<path d="M149.886 194.64C149.832 194.688 149.106 194.1 148.116 193.494C147.702 193.232 147.273 192.993 146.832 192.78C146.49 192.624 146.262 192.582 146.268 192.534C146.274 192.486 146.526 192.462 146.904 192.576C147.391 192.733 147.855 192.952 148.284 193.23C149.298 193.848 149.964 194.574 149.886 194.64Z" fill="#EB996E"/>
<path d="M151.734 192.372C151.019 192.455 150.294 192.373 149.616 192.132C149.12 191.98 148.659 191.732 148.26 191.4C147.96 191.142 147.834 190.932 147.864 190.902C148.441 191.275 149.059 191.581 149.706 191.814C150.394 191.955 151.071 192.141 151.734 192.372Z" fill="#EB996E"/>
<path d="M141.054 205.152C140.675 204.755 140.339 204.318 140.052 203.85C139.367 202.742 138.501 201.756 137.49 200.934C136.442 200.168 135.144 199.825 133.854 199.974C133.325 200.069 132.811 200.232 132.324 200.46C132.324 200.46 132.432 200.334 132.678 200.184C133.029 199.972 133.415 199.825 133.818 199.752C134.49 199.644 135.176 199.67 135.838 199.83C136.499 199.989 137.122 200.279 137.67 200.682C138.714 201.521 139.586 202.554 140.238 203.724C140.55 204.176 140.823 204.654 141.054 205.152Z" fill="#EB996E"/>
<path d="M149.46 229.452C147.98 229.767 146.481 229.981 144.972 230.094C143.472 230.312 141.958 230.424 140.442 230.43C141.924 230.116 143.425 229.901 144.936 229.788C146.435 229.574 147.946 229.462 149.46 229.452Z" fill="#EB996E"/>
<path d="M243.978 29.9041L244.656 31.1461L245.892 31.8241L244.656 32.5021L243.978 33.7381L243.3 32.5021L242.064 31.8241L243.3 31.1461L243.978 29.9041Z" fill="url(#paint14_linear_3318_4635)"/>
<path d="M258.144 60.606L258.822 61.848L260.058 62.526L258.822 63.204L258.144 64.44L257.466 63.204L256.224 62.526L257.466 61.848L258.144 60.606Z" fill="url(#paint15_linear_3318_4635)"/>
<path d="M31.1401 142.518L31.8181 143.76L33.0601 144.438L31.8181 145.11L31.1401 146.352L30.4621 145.11L29.2261 144.438L30.4621 143.76L31.1401 142.518Z" fill="url(#paint16_linear_3318_4635)"/>
<path d="M225.396 37.5361L226.962 40.3981L229.824 41.9641L226.962 43.5241L225.396 46.3861L223.836 43.5241L220.974 41.9641L223.836 40.3981L225.396 37.5361Z" fill="url(#paint17_linear_3318_4635)"/>
<path d="M43.8359 123.06L45.3959 125.91L48.2519 127.47L45.3959 129.036L43.8359 131.886L42.2759 129.036L39.4199 127.47L42.2759 125.91L43.8359 123.06Z" fill="url(#paint18_linear_3318_4635)"/>
<path d="M261.996 191.136L263.556 193.992L266.406 195.552L263.556 197.112L261.996 199.968L260.436 197.112L257.58 195.552L260.436 193.992L261.996 191.136Z" fill="url(#paint19_linear_3318_4635)"/>
<defs>
<linearGradient id="paint0_linear_3318_4635" x1="201.019" y1="87.9649" x2="249.775" y2="87.9649" gradientUnits="userSpaceOnUse">
<stop stop-color="#F2B705"/>
<stop offset="1" stop-color="#FFD600"/>
</linearGradient>
<linearGradient id="paint1_linear_3318_4635" x1="249.586" y1="162.948" x2="283.214" y2="162.948" gradientUnits="userSpaceOnUse">
<stop stop-color="#F2B705"/>
<stop offset="1" stop-color="#FFD600"/>
</linearGradient>
<linearGradient id="paint2_linear_3318_4635" x1="28.9561" y1="88.1218" x2="54.6001" y2="88.1218" gradientUnits="userSpaceOnUse">
<stop stop-color="#F2B705"/>
<stop offset="1" stop-color="#FFD600"/>
</linearGradient>
<linearGradient id="paint3_linear_3318_4635" x1="144.774" y1="245.54" x2="148.756" y2="245.54" gradientUnits="userSpaceOnUse">
<stop stop-color="#F2B705"/>
<stop offset="1" stop-color="#FFD600"/>
</linearGradient>
<linearGradient id="paint4_linear_3318_4635" x1="112.147" y1="201.05" x2="119.988" y2="201.05" gradientUnits="userSpaceOnUse">
<stop stop-color="#F2B705"/>
<stop offset="1" stop-color="#FFD600"/>
</linearGradient>
<linearGradient id="paint5_linear_3318_4635" x1="128.226" y1="197.375" x2="184.08" y2="197.375" gradientUnits="userSpaceOnUse">
<stop stop-color="#F2B705"/>
<stop offset="1" stop-color="#FFD600"/>
</linearGradient>
<linearGradient id="paint6_linear_3318_4635" x1="57.023" y1="124.003" x2="171.318" y2="124.003" gradientUnits="userSpaceOnUse">
<stop stop-color="#F2B705"/>
<stop offset="1" stop-color="#FFD600"/>
</linearGradient>
<linearGradient id="paint7_linear_3318_4635" x1="148.032" y1="159.893" x2="203.312" y2="159.893" gradientUnits="userSpaceOnUse">
<stop stop-color="#F2B705"/>
<stop offset="1" stop-color="#FFD600"/>
</linearGradient>
<linearGradient id="paint8_linear_3318_4635" x1="59.7007" y1="119.031" x2="103.86" y2="119.031" gradientUnits="userSpaceOnUse">
<stop stop-color="#F2B705"/>
<stop offset="1" stop-color="#FFD600"/>
</linearGradient>
<linearGradient id="paint9_linear_3318_4635" x1="196.194" y1="173.556" x2="207.648" y2="173.556" gradientUnits="userSpaceOnUse">
<stop stop-color="#F2B705"/>
<stop offset="1" stop-color="#FFD600"/>
</linearGradient>
<linearGradient id="paint10_linear_3318_4635" x1="177.388" y1="165.486" x2="195.603" y2="165.486" gradientUnits="userSpaceOnUse">
<stop stop-color="#F2B705"/>
<stop offset="1" stop-color="#FFD600"/>
</linearGradient>
<linearGradient id="paint11_linear_3318_4635" x1="181.772" y1="159.686" x2="198.184" y2="159.686" gradientUnits="userSpaceOnUse">
<stop stop-color="#F2B705"/>
<stop offset="1" stop-color="#FFD600"/>
</linearGradient>
<linearGradient id="paint12_linear_3318_4635" x1="175.755" y1="172.046" x2="192.361" y2="172.046" gradientUnits="userSpaceOnUse">
<stop stop-color="#F2B705"/>
<stop offset="1" stop-color="#FFD600"/>
</linearGradient>
<linearGradient id="paint13_linear_3318_4635" x1="73.1406" y1="122.81" x2="94.476" y2="122.81" gradientUnits="userSpaceOnUse">
<stop stop-color="#F2B705"/>
<stop offset="1" stop-color="#FFD600"/>
</linearGradient>
<linearGradient id="paint14_linear_3318_4635" x1="242.064" y1="31.8211" x2="245.892" y2="31.8211" gradientUnits="userSpaceOnUse">
<stop stop-color="#F2B705"/>
<stop offset="1" stop-color="#FFD600"/>
</linearGradient>
<linearGradient id="paint15_linear_3318_4635" x1="256.224" y1="62.523" x2="260.058" y2="62.523" gradientUnits="userSpaceOnUse">
<stop stop-color="#F2B705"/>
<stop offset="1" stop-color="#FFD600"/>
</linearGradient>
<linearGradient id="paint16_linear_3318_4635" x1="29.2261" y1="144.435" x2="33.0601" y2="144.435" gradientUnits="userSpaceOnUse">
<stop stop-color="#F2B705"/>
<stop offset="1" stop-color="#FFD600"/>
</linearGradient>
<linearGradient id="paint17_linear_3318_4635" x1="220.974" y1="41.9611" x2="229.824" y2="41.9611" gradientUnits="userSpaceOnUse">
<stop stop-color="#F2B705"/>
<stop offset="1" stop-color="#FFD600"/>
</linearGradient>
<linearGradient id="paint18_linear_3318_4635" x1="39.4199" y1="127.473" x2="48.2519" y2="127.473" gradientUnits="userSpaceOnUse">
<stop stop-color="#F2B705"/>
<stop offset="1" stop-color="#FFD600"/>
</linearGradient>
<linearGradient id="paint19_linear_3318_4635" x1="257.58" y1="195.552" x2="266.406" y2="195.552" gradientUnits="userSpaceOnUse">
<stop stop-color="#F2B705"/>
<stop offset="1" stop-color="#FFD600"/>
</linearGradient>
</defs>
</svg>
