<svg width="300" height="240" viewBox="0 0 300 240" fill="none" xmlns="http://www.w3.org/2000/svg">
<g clip-path="url(#clip0_2559_103)">
<path d="M263.524 232.892L257.288 232.892L254.321 208.734L263.525 208.735L263.524 232.892Z" fill="#FFB6B6"/>
<path d="M263.744 239.426L244.565 239.425V239.181C244.566 235.041 247.908 231.685 252.03 231.685L255.534 229.016L262.07 231.685L263.744 231.686L263.744 239.426Z" fill="#162300"/>
<path d="M235.875 232.892L229.639 232.892L226.672 208.734L235.877 208.735L235.875 232.892Z" fill="#FFB6B6"/>
<path d="M236.095 239.426L216.917 239.425V239.181C216.917 235.041 220.259 231.685 224.381 231.685L227.885 229.016L234.421 231.685L236.095 231.686L236.095 239.426Z" fill="#162300"/>
<path d="M232.903 98.0742L268.885 98.8349C268.885 98.8349 275.354 109.485 270.415 124.509L270.968 128.693L268.696 135.159L267.559 154.938L268.696 157.981L267.938 163.686C267.938 163.686 270.968 201.342 263.393 220.36L254.303 219.979L250.894 170.36L252.788 166.729L252.409 165.208L247.864 142.386L243.319 154.177V160.729L239.153 165.588C239.153 165.588 240.668 210.47 236.502 219.599H226.325L222.488 158.741L226.275 123.368L225.518 121.086L226.654 119.945L225.897 116.141L232.903 98.0742Z" fill="#162300"/>
<path d="M248.243 28.6586L259.227 25.9961L262.257 33.2229C262.257 33.2229 277.934 41.5908 278.691 53.0016C278.691 53.0016 280.816 62.1302 278.922 66.3142C277.028 70.4981 269.074 83.8107 269.074 83.8107C269.074 83.8107 276.271 107.013 274.377 108.154C272.483 109.295 227.412 107.013 227.412 104.73C227.412 102.448 234.913 78.4856 234.913 78.4856L236.502 37.4069L246.728 33.6033L248.243 28.6586Z" fill="#233400"/>
<path d="M277.526 122.29C275.227 121.126 274.302 118.312 275.46 116.003C275.577 115.771 275.714 115.556 275.862 115.353L269.75 73.271L278.212 73.5428L282.638 114.545C284.242 115.911 284.774 118.246 283.786 120.216C282.627 122.525 279.825 123.453 277.526 122.29Z" fill="#FFB6B6"/>
<path d="M197.237 102.428C196.312 100.016 197.509 97.3069 199.911 96.3774C200.153 96.2838 200.398 96.2175 200.643 96.1663L224.254 60.8628L230.342 66.7705L206.204 100.137C206.479 102.232 205.312 104.32 203.263 105.113C200.861 106.043 198.163 104.841 197.237 102.428Z" fill="#FFB6B6"/>
<path d="M262.107 62.6568C259.716 54.4085 263.687 45.9932 272.241 46.0338C274.713 46.0456 276.634 46.7661 277.167 48.7605C279.03 55.7408 280.046 66.2778 280.046 66.2778L282.256 77.4964L280.918 79.8257L283.709 87.3439L282.355 90.9007L282.062 109.064L275.245 108.684L267.733 94.837L264.86 93.1218C264.86 93.1218 267.167 70.7338 262.579 64.2877L262.107 62.6568Z" fill="#233400"/>
<path d="M231.569 42.3573C235.556 34.7566 245.761 32.9562 251.886 38.9534C253.657 40.6869 254.54 42.5453 253.543 44.3512C250.054 50.672 241.968 57.4776 241.968 57.4776L232.009 73.5551L229.435 74.2965L226.241 81.6515L219.398 89.7313L210.334 94.5315L205.032 89.2064L206.158 82.3613L219.803 64.1027C219.803 64.1027 229.621 51.6973 230.781 43.8602L231.569 42.3573Z" fill="#233400"/>
<path d="M250.33 26.4352C250.581 26.4655 250.831 26.4882 251.08 26.4996C251.854 26.5423 252.619 26.4979 253.356 26.3724C255.595 26.012 257.63 24.9469 259.2 23.3848C260.859 21.7366 261.995 19.5367 262.302 17.0322C263.021 11.1206 258.83 5.73559 252.943 5.01326C247.141 4.2971 241.852 8.37249 241.007 14.1484C240.994 14.2378 240.98 14.3234 240.971 14.4125C240.252 20.3278 244.44 25.7095 250.33 26.4352Z" fill="#FFB6B6"/>
<path d="M238.587 13.7529C240.112 14.5102 242.603 12.1294 243.558 13.4992C243.713 13.2032 243.884 12.9169 244.053 12.6462C244.206 12.4039 244.425 11.8868 244.678 11.7982C244.358 12.575 244.428 13.627 244.761 14.5283C246.265 15.0927 248.234 13.8434 249.626 12.3656C251.812 10.0484 255.382 15.9903 254.538 19.0654C255.612 17.7482 257.943 18.4911 258.733 19.9972C259.522 21.4996 258.188 22.7033 257.903 24.3791L260.056 24.1044C261.415 22.7756 261.32 20.5365 262.439 18.9964C264.308 16.4189 265.032 13.7891 263.627 11.129C262.381 8.77703 262.264 5.73302 259.978 4.37701C260.977 3.88659 257.425 4.65275 258.374 3.05451C259.327 1.45963 254.247 1.26605 253.916 2.1205C252.464 0.375964 251 -0.774247 249.215 0.623628C247.461 1.99891 247.643 3.4445 245.583 3.31495C244.617 3.25482 244.723 5.06431 244.148 5.85321C243.577 6.6379 241.357 7.14164 241.249 7.05767C240.662 6.59691 238.667 10.5193 238.667 10.5193C238.667 10.5193 237.049 12.9855 238.587 13.7529Z" fill="#162300"/>
<path d="M104.188 82.2139C140.27 82.2139 169.52 111.588 169.52 147.822C169.52 184.057 140.27 213.431 104.188 213.431C68.1066 213.431 18.171 177.506 38.8566 147.822C59.5423 118.139 68.1066 82.2139 104.188 82.2139Z" fill="#DEDEDE"/>
<path d="M191.63 85.335C191.044 85.335 190.567 85.8134 190.567 86.4018V120.54C190.567 121.128 191.044 121.606 191.63 121.606C192.216 121.606 192.692 121.128 192.692 120.54V86.4018C192.692 85.8134 192.216 85.335 191.63 85.335Z" fill="#233400"/>
<path d="M13.1629 59.7314C12.577 59.7314 12.1006 60.2099 12.1006 60.7983V69.3327C12.1006 69.9211 12.577 70.3995 13.1629 70.3995C13.7488 70.3995 14.2252 69.9211 14.2252 69.3327V60.7982C14.2252 60.2099 13.7488 59.7314 13.1629 59.7314Z" fill="#233400"/>
<path d="M13.1629 85.335C12.577 85.335 12.1006 85.8134 12.1006 86.4018V102.937C12.1006 103.526 12.577 104.004 13.1629 104.004C13.7488 104.004 14.2252 103.526 14.2252 102.937V86.4018C14.2252 85.8134 13.7488 85.335 13.1629 85.335Z" fill="#233400"/>
<path d="M13.1629 108.805C12.577 108.805 12.1006 109.283 12.1006 109.871V126.407C12.1006 126.995 12.577 127.474 13.1629 127.474C13.7488 127.474 14.2252 126.995 14.2252 126.407V109.871C14.2252 109.283 13.7488 108.805 13.1629 108.805Z" fill="#233400"/>
<path d="M108.437 26.127C107.851 26.127 107.375 26.6054 107.375 27.1938V43.7293C107.375 44.3176 107.851 44.7961 108.437 44.7961C109.023 44.7961 109.5 44.3176 109.5 43.7293V27.1938C109.5 26.6054 109.023 26.127 108.437 26.127Z" fill="#233400"/>
<path d="M271.18 230.754C272.277 230.823 272.884 229.454 272.054 228.656L271.971 228.327C271.982 228.3 271.993 228.274 272.004 228.248C273.114 225.59 276.875 225.609 277.975 228.27C278.951 230.632 280.195 232.998 280.501 235.495C280.638 236.598 280.576 237.721 280.333 238.803C282.621 233.783 283.825 228.302 283.825 222.789C283.825 221.404 283.75 220.019 283.595 218.638C283.468 217.508 283.293 216.385 283.067 215.272C281.842 209.257 279.19 203.527 275.365 198.742C273.526 197.733 271.993 196.155 271.067 194.263C270.734 193.581 270.473 192.847 270.35 192.1C270.559 192.127 271.139 188.927 270.981 188.73C271.272 188.286 271.794 188.065 272.113 187.631C273.697 185.475 275.879 185.851 277.019 188.782C279.453 190.016 279.476 192.061 277.983 194.029C277.033 195.281 276.902 196.975 276.069 198.315C276.154 198.425 276.244 198.532 276.329 198.642C277.902 200.668 279.262 202.845 280.409 205.133C280.085 202.591 280.563 199.528 281.379 197.553C282.308 195.304 284.048 193.409 285.581 191.465C287.422 189.129 291.197 190.148 291.521 193.109C291.524 193.138 291.527 193.167 291.53 193.195C291.303 193.324 291.08 193.461 290.862 193.606C289.619 194.431 290.049 196.366 291.521 196.594L291.554 196.599C291.472 197.423 291.331 198.239 291.126 199.042C293.092 206.678 288.847 209.459 282.786 209.584C282.652 209.653 282.522 209.722 282.388 209.787C283.002 211.524 283.492 213.305 283.856 215.11C284.182 216.705 284.408 218.318 284.535 219.937C284.693 221.98 284.679 224.033 284.508 226.073L284.518 226C284.954 223.754 286.168 221.656 287.932 220.202C290.559 218.035 294.27 217.237 297.104 215.495C298.468 214.657 300.216 215.74 299.978 217.329L299.966 217.405C299.544 217.577 299.133 217.777 298.735 218.001C298.507 218.13 298.284 218.267 298.066 218.411C296.824 219.237 297.253 221.171 298.725 221.399L298.759 221.404C298.783 221.408 298.803 221.411 298.827 221.415C298.103 223.141 297.095 224.743 295.832 226.124C294.603 232.79 289.323 233.423 283.674 231.482H283.671C283.053 234.183 282.151 236.822 280.991 239.337H271.42C271.386 239.23 271.355 239.12 271.324 239.013C272.209 239.068 273.101 239.016 273.972 238.854C273.262 237.979 272.552 237.097 271.842 236.222C271.825 236.205 271.811 236.188 271.797 236.171C271.437 235.723 271.074 235.278 270.713 234.83L270.713 234.83C270.691 233.455 270.855 232.084 271.18 230.754Z" fill="#DEDEDE"/>
<path d="M0 239.365C0 239.717 0.281526 240 0.632102 240H299.293C299.644 240 299.925 239.717 299.925 239.365C299.925 239.013 299.644 238.73 299.293 238.73H0.632102C0.281526 238.73 0 239.013 0 239.365Z" fill="#D9D9D9"/>
<path d="M75.6232 143.4H38.8564V142.333H75.6231C78.8171 142.333 81.4155 139.723 81.4155 136.516V111.551H82.4778V136.516C82.4778 140.311 79.4029 143.4 75.6232 143.4Z" fill="url(#paint0_linear_2559_103)"/>
<path d="M145.777 197.517H62.1548V198.583H145.777V197.517Z" fill="url(#paint1_linear_2559_103)"/>
<path d="M198.833 136.267H154.167C151.757 136.267 149.796 134.297 149.796 131.877V87.5691C149.796 85.1485 151.757 83.1792 154.167 83.1792H198.833C201.243 83.1792 203.204 85.1485 203.204 87.5691V131.877C203.204 134.297 201.243 136.267 198.833 136.267Z" fill="#999999"/>
<path d="M162.485 84.4873C156.196 84.4873 151.098 89.6071 151.098 95.9226V130.937C151.098 133.158 152.891 134.959 155.103 134.959H182.415C193.177 134.959 201.901 126.197 201.901 115.39V88.5093C201.901 86.288 200.108 84.4873 197.896 84.4873L162.485 84.4873Z" fill="white"/>
<path d="M188.462 97.3634H164.443C163.985 97.3634 163.612 96.989 163.612 96.5288C163.612 96.0686 163.985 95.6943 164.443 95.6943H188.462C188.921 95.6943 189.293 96.0686 189.293 96.5288C189.293 96.989 188.921 97.3634 188.462 97.3634Z" fill="#999999"/>
<path d="M188.462 115.16H164.443C163.985 115.16 163.612 114.785 163.612 114.325C163.612 113.865 163.985 113.491 164.443 113.491H188.462C188.921 113.491 189.293 113.865 189.293 114.325C189.293 114.785 188.921 115.16 188.462 115.16Z" fill="#999999"/>
<path d="M198.216 106.267H154.69C154.232 106.267 153.859 105.893 153.859 105.433C153.859 104.972 154.232 104.598 154.69 104.598H198.216C198.674 104.598 199.047 104.972 199.047 105.433C199.047 105.893 198.674 106.267 198.216 106.267Z" fill="#999999"/>
<path d="M198.661 122.396H182.937C182.478 122.396 182.105 122.021 182.105 121.561C182.105 121.101 182.478 120.727 182.937 120.727H198.661C199.119 120.727 199.491 121.101 199.491 121.561C199.491 122.021 199.119 122.396 198.661 122.396Z" fill="#999999"/>
<path d="M105.015 224.547H69.5473C67.6333 224.547 66.0762 222.983 66.0762 221.061V185.878C66.0762 183.956 67.6333 182.392 69.5473 182.392H105.015C106.929 182.392 108.486 183.956 108.486 185.878V221.061C108.486 222.983 106.929 224.547 105.015 224.547Z" fill="#999999"/>
<path d="M76.1524 183.431C71.1586 183.431 67.1104 187.496 67.1104 192.511V220.315C67.1104 222.079 68.5342 223.508 70.2906 223.508H91.978C100.524 223.508 107.452 216.551 107.452 207.969V186.624C107.452 184.861 106.028 183.431 104.271 183.431L76.1524 183.431Z" fill="white"/>
<path d="M96.7805 193.655H77.7078C77.3439 193.655 77.0479 193.358 77.0479 192.992C77.0479 192.627 77.3439 192.33 77.7078 192.33H96.7805C97.1444 192.33 97.4403 192.627 97.4403 192.992C97.4403 193.358 97.1444 193.655 96.7805 193.655Z" fill="#999999"/>
<path d="M96.7805 207.786H77.7078C77.3439 207.786 77.0479 207.489 77.0479 207.124C77.0479 206.758 77.3439 206.461 77.7078 206.461H96.7805C97.1444 206.461 97.4403 206.758 97.4403 207.124C97.4403 207.489 97.1444 207.786 96.7805 207.786Z" fill="#999999"/>
<path d="M104.525 200.725H69.9627C69.5988 200.725 69.3027 200.428 69.3027 200.063C69.3027 199.697 69.5988 199.4 69.9627 199.4H104.525C104.889 199.4 105.185 199.697 105.185 200.063C105.185 200.428 104.889 200.725 104.525 200.725Z" fill="#999999"/>
<path d="M104.878 213.532H92.3924C92.0285 213.532 91.7324 213.235 91.7324 212.87C91.7324 212.504 92.0285 212.207 92.3924 212.207H104.878C105.242 212.207 105.538 212.504 105.538 212.87C105.538 213.235 105.242 213.532 104.878 213.532Z" fill="#999999"/>
<path d="M80.225 111.282H53.9953C52.5798 111.282 51.4282 110.125 51.4282 108.704V82.6844C51.4282 81.2629 52.5798 80.1064 53.9953 80.1064H80.225C81.6405 80.1064 82.7921 81.2629 82.7921 82.6844V108.704C82.7921 110.125 81.6405 111.282 80.225 111.282Z" fill="#999999"/>
<path d="M58.8799 80.8745C55.1868 80.8745 52.1929 83.8811 52.1929 87.5899V108.152C52.1929 109.456 53.2459 110.514 54.5448 110.514H70.5836C76.9036 110.514 82.027 105.369 82.027 99.0219V83.2364C82.027 81.932 80.974 80.8745 79.6751 80.8745L58.8799 80.8745Z" fill="white"/>
<path d="M74.1356 88.4357H60.0305C59.7615 88.4357 59.5425 88.2158 59.5425 87.9456C59.5425 87.6754 59.7614 87.4556 60.0305 87.4556H74.1356C74.4047 87.4556 74.6236 87.6754 74.6236 87.9456C74.6236 88.2158 74.4047 88.4357 74.1356 88.4357Z" fill="#999999"/>
<path d="M74.1356 98.8864H60.0305C59.7615 98.8864 59.5425 98.6665 59.5425 98.3963C59.5425 98.126 59.7614 97.9062 60.0305 97.9062H74.1356C74.4047 97.9062 74.6236 98.126 74.6236 98.3963C74.6236 98.6665 74.4047 98.8864 74.1356 98.8864Z" fill="#999999"/>
<path d="M79.8632 93.6647H54.3025C54.0334 93.6647 53.8145 93.4448 53.8145 93.1746C53.8145 92.9044 54.0334 92.6846 54.3025 92.6846H79.8632C80.1323 92.6846 80.3512 92.9044 80.3512 93.1746C80.3512 93.4448 80.1323 93.6647 79.8632 93.6647Z" fill="#999999"/>
<path d="M80.1238 103.136H70.8899C70.6208 103.136 70.4019 102.916 70.4019 102.646C70.4019 102.376 70.6208 102.156 70.8899 102.156H80.1238C80.3929 102.156 80.6118 102.376 80.6118 102.646C80.6118 102.916 80.3929 103.136 80.1238 103.136Z" fill="#999999"/>
<path d="M156.772 144.088C159.706 144.088 162.084 141.7 162.084 138.754C162.084 135.809 159.706 133.42 156.772 133.42C153.839 133.42 151.461 135.809 151.461 138.754C151.461 141.7 153.839 144.088 156.772 144.088Z" fill="url(#paint2_linear_2559_103)"/>
<path d="M81.8799 116.885C84.8133 116.885 87.1914 114.497 87.1914 111.551C87.1914 108.605 84.8133 106.217 81.8799 106.217C78.9464 106.217 76.5684 108.605 76.5684 111.551C76.5684 114.497 78.9464 116.885 81.8799 116.885Z" fill="url(#paint3_linear_2559_103)"/>
<path d="M107.375 189.961C110.308 189.961 112.687 187.573 112.687 184.627C112.687 181.681 110.308 179.293 107.375 179.293C104.442 179.293 102.063 181.681 102.063 184.627C102.063 187.573 104.442 189.961 107.375 189.961Z" fill="url(#paint4_linear_2559_103)"/>
<path d="M118.848 42.0607C122.504 42.0607 125.468 39.147 125.468 35.5528C125.468 31.9586 122.504 29.0449 118.848 29.0449C115.192 29.0449 112.229 31.9586 112.229 35.5528C112.229 39.147 115.192 42.0607 118.848 42.0607Z" fill="#DEDEDE"/>
<path d="M171.917 33.3263H136.285C135.062 33.3263 134.068 32.3275 134.068 31.0999C134.068 29.8723 135.062 28.8735 136.285 28.8735H171.917C173.14 28.8735 174.134 29.8723 174.134 31.0999C174.134 32.3275 173.14 33.3263 171.917 33.3263Z" fill="#DEDEDE"/>
<path d="M199.725 40.8619H136.285C135.062 40.8619 134.068 39.8632 134.068 38.6356C134.068 37.408 135.062 36.4092 136.285 36.4092H199.725C200.947 36.4092 201.942 37.408 201.942 38.6356C201.942 39.8632 200.947 40.8619 199.725 40.8619Z" fill="#DEDEDE"/>
<path d="M23.0304 69.4119C25.3965 69.4119 27.3147 67.5262 27.3147 65.2001C27.3147 62.874 25.3965 60.9883 23.0304 60.9883C20.6642 60.9883 18.7461 62.874 18.7461 65.2001C18.7461 67.5262 20.6642 69.4119 23.0304 69.4119Z" fill="#DEDEDE"/>
<path d="M57.3759 63.7592H34.3152C33.524 63.7592 32.8804 63.1128 32.8804 62.3183C32.8804 61.5238 33.524 60.8774 34.3152 60.8774H57.3759C58.167 60.8774 58.8107 61.5238 58.8107 62.3183C58.8107 63.1128 58.167 63.7592 57.3759 63.7592Z" fill="#DEDEDE"/>
<path d="M75.3725 68.6362H34.3152C33.524 68.6362 32.8804 67.9898 32.8804 67.1953C32.8804 66.4008 33.524 65.7544 34.3152 65.7544H75.3725C76.1636 65.7544 76.8073 66.4008 76.8073 67.1953C76.8073 67.9898 76.1636 68.6362 75.3725 68.6362Z" fill="#DEDEDE"/>
<path d="M151.569 219.299C153.935 219.299 155.853 217.413 155.853 215.087C155.853 212.761 153.935 210.875 151.569 210.875C149.203 210.875 147.285 212.761 147.285 215.087C147.285 217.413 149.203 219.299 151.569 219.299Z" fill="#DEDEDE"/>
<path d="M185.914 213.646H162.854C162.063 213.646 161.419 213 161.419 212.205C161.419 211.411 162.063 210.764 162.854 210.764H185.914C186.706 210.764 187.349 211.411 187.349 212.205C187.349 213 186.706 213.646 185.914 213.646Z" fill="#DEDEDE"/>
<path d="M203.911 218.523H162.854C162.063 218.523 161.419 217.876 161.419 217.082C161.419 216.288 162.063 215.641 162.854 215.641H203.911C204.702 215.641 205.346 216.288 205.346 217.082C205.346 217.876 204.702 218.523 203.911 218.523Z" fill="#DEDEDE"/>
<path d="M100.072 83.1953H99.0093V133.869H100.072V83.1953Z" fill="#999999"/>
<path d="M99.5404 137.069C101.301 137.069 102.727 135.636 102.727 133.868C102.727 132.101 101.301 130.668 99.5404 130.668C97.7803 130.668 96.3535 132.101 96.3535 133.868C96.3535 135.636 97.7803 137.069 99.5404 137.069Z" fill="#999999"/>
<path d="M147.875 173.874C149.635 173.874 151.062 172.441 151.062 170.674C151.062 168.906 149.635 167.473 147.875 167.473C146.115 167.473 144.688 168.906 144.688 170.674C144.688 172.441 146.115 173.874 147.875 173.874Z" fill="#999999"/>
<path d="M61.829 130.135C63.5891 130.135 65.0159 128.702 65.0159 126.934C65.0159 125.167 63.5891 123.734 61.829 123.734C60.0689 123.734 58.6421 125.167 58.6421 126.934C58.6421 128.702 60.0689 130.135 61.829 130.135Z" fill="#999999"/>
<path d="M60.6513 126.939L43.2227 127.469L43.2548 128.536L60.6834 128.006L60.6513 126.939Z" fill="#999999"/>
<path d="M173.801 182.925H147.374V170.673H148.436V181.859H173.801V182.925Z" fill="#999999"/>
<path d="M60.5209 165.081C62.281 165.081 63.7078 163.648 63.7078 161.88C63.7078 160.113 62.281 158.68 60.5209 158.68C58.7608 158.68 57.334 160.113 57.334 161.88C57.334 163.648 58.7608 165.081 60.5209 165.081Z" fill="#999999"/>
<path d="M86.132 174.133H59.7041V161.88H60.7664V173.066H86.132V174.133Z" fill="#999999"/>
<path d="M166.997 149.702H40.061V150.769H166.997V149.702Z" fill="#999999"/>
</g>
<defs>
<linearGradient id="paint0_linear_2559_103" x1="38.8564" y1="127.475" x2="82.4778" y2="127.475" gradientUnits="userSpaceOnUse">
<stop stop-color="#FF2A00"/>
<stop offset="1" stop-color="#FF720C"/>
</linearGradient>
<linearGradient id="paint1_linear_2559_103" x1="62.1548" y1="198.05" x2="145.777" y2="198.05" gradientUnits="userSpaceOnUse">
<stop stop-color="#FF2A00"/>
<stop offset="1" stop-color="#FF720C"/>
</linearGradient>
<linearGradient id="paint2_linear_2559_103" x1="151.461" y1="138.754" x2="162.084" y2="138.754" gradientUnits="userSpaceOnUse">
<stop stop-color="#FF2A00"/>
<stop offset="1" stop-color="#FF720C"/>
</linearGradient>
<linearGradient id="paint3_linear_2559_103" x1="76.5684" y1="111.551" x2="87.1914" y2="111.551" gradientUnits="userSpaceOnUse">
<stop stop-color="#FF2A00"/>
<stop offset="1" stop-color="#FF720C"/>
</linearGradient>
<linearGradient id="paint4_linear_2559_103" x1="102.063" y1="184.627" x2="112.687" y2="184.627" gradientUnits="userSpaceOnUse">
<stop stop-color="#FF2A00"/>
<stop offset="1" stop-color="#FF720C"/>
</linearGradient>
<clipPath id="clip0_2559_103">
<rect width="300" height="240" fill="white"/>
</clipPath>
</defs>
</svg>
