<svg width="50" height="50" viewBox="0 0 50 50" fill="none" xmlns="http://www.w3.org/2000/svg">
<rect width="50" height="50" rx="15" fill="#FDFDFD"/>
<path d="M23.0615 22.5766C23.0615 21.9066 22.5415 21.3633 21.8998 21.3633H19.2998C19.8415 18.5966 22.1865 16.5166 24.9998 16.5166C27.8131 16.5166 30.1581 18.5999 30.6981 21.3666H26.5498C25.9081 21.3666 25.3881 21.9083 25.3881 22.5766C25.3881 23.2466 25.9081 23.7899 26.5498 23.7899H30.8131V26.2133H26.5498C25.9081 26.2133 25.3881 26.7566 25.3881 27.4249C25.3881 28.0949 25.9081 28.6383 26.5498 28.6383H30.6981C30.2348 31.0133 28.4415 32.8833 26.1631 33.3649V37.1233C26.1631 37.7916 25.6415 38.3349 24.9998 38.3349C24.3581 38.3349 23.8365 37.7916 23.8365 37.1233V33.3649C21.5581 32.8816 19.7648 31.0133 19.3031 28.6383H21.8981C22.5415 28.6383 23.0615 28.0949 23.0615 27.4249C23.0615 26.7566 22.5415 26.2133 21.8998 26.2133H19.1848V23.7899H21.8965C22.5398 23.7899 23.0598 23.2466 23.0598 22.5783L23.0615 22.5766Z" fill="#404040"/>
<path d="M24.9999 11.6665C19.4499 11.6665 14.9099 16.1682 14.5566 21.8598C13.9549 21.5335 13.2811 21.3628 12.5966 21.3632C10.2416 21.3632 8.33325 23.3532 8.33325 25.8082V29.0415C8.33325 31.4948 10.2416 33.4848 12.5966 33.4848C12.6766 33.4848 12.7566 33.4815 12.8349 33.4782V33.4848C15.0583 33.4848 16.8599 31.6065 16.8599 29.2882V22.5748C16.8599 17.8898 20.5049 14.0915 24.9999 14.0915C29.4949 14.0915 33.1399 17.8898 33.1399 22.5748V29.2882C33.1399 31.6048 34.9399 33.4848 37.1649 33.4848V33.4782C37.2433 33.4832 37.3232 33.4848 37.4032 33.4848C39.7583 33.4848 41.6666 31.4948 41.6666 29.0398V25.8065C41.6666 23.3532 39.7583 21.3632 37.4032 21.3632C36.6966 21.3632 36.0299 21.5432 35.4433 21.8598C35.0899 16.1682 30.5483 11.6665 24.9999 11.6665Z" fill="#404040"/>
</svg>
