<svg width="50" height="50" viewBox="0 0 50 50" fill="none" xmlns="http://www.w3.org/2000/svg">
    <rect width="50" height="50" rx="15" fill="#FDFDFD"/>
    <path d="M25 13.75C25 13.75 17.2675 20.425 12.9463 24.04C12.8087 24.1598 12.698 24.3072 12.6211 24.4726C12.5442 24.638 12.503 24.8176 12.5 25C12.5 25.3315 12.6317 25.6495 12.8661 25.8839C13.1005 26.1183 13.4185 26.25 13.75 26.25H16.25V35C16.25 35.3315 16.3817 35.6495 16.6161 35.8839C16.8505 36.1183 17.1685 36.25 17.5 36.25H21.25C21.5815 36.25 21.8995 36.1183 22.1339 35.8839C22.3683 35.6495 22.5 35.3315 22.5 35V30H27.5V35C27.5 35.3315 27.6317 35.6495 27.8661 35.8839C28.1005 36.1183 28.4185 36.25 28.75 36.25H32.5C32.8315 36.25 33.1495 36.1183 33.3839 35.8839C33.6183 35.6495 33.75 35.3315 33.75 35V26.25H36.25C36.5815 26.25 36.8995 26.1183 37.1339 25.8839C37.3683 25.6495 37.5 25.3315 37.5 25C37.4983 24.8141 37.4542 24.6311 37.3713 24.4648C37.2884 24.2985 37.1686 24.1532 37.0213 24.04C32.73 20.425 25 13.75 25 13.75Z" fill="#404040"/>
</svg>
