<svg width="40" height="40" viewBox="0 0 40 40" fill="none" xmlns="http://www.w3.org/2000/svg">
<path d="M30.8333 33.3333H9.16663L4.16663 38.3333V10C4.16663 7.25 6.41663 5 9.16663 5H30.8333C33.5833 5 35.8333 7.25 35.8333 10V28.3333C35.8333 31.0833 33.5833 33.3333 30.8333 33.3333Z" fill="#FDFDFD"/>
<path d="M18.3333 16.666H21.6666V25.8327H18.3333V16.666Z" fill="#404040"/>
<path d="M20 14.1663C20.9205 14.1663 21.6666 13.4201 21.6666 12.4997C21.6666 11.5792 20.9205 10.833 20 10.833C19.0795 10.833 18.3333 11.5792 18.3333 12.4997C18.3333 13.4201 19.0795 14.1663 20 14.1663Z" fill="#404040"/>
</svg>
