<svg width="20" height="25" viewBox="0 0 20 25" fill="none" xmlns="http://www.w3.org/2000/svg">
<path d="M3.8147e-06 12.5C-0.000745773 12.8265 0.0783978 13.1476 0.229734 13.4321C0.381071 13.7166 0.599455 13.9549 0.863642 14.1237L17.2364 24.717C17.5124 24.8957 17.8286 24.9933 18.1522 24.9997C18.4758 25.006 18.7952 24.9209 19.0773 24.753C19.3567 24.5878 19.5895 24.3468 19.7516 24.0549C19.9138 23.763 19.9995 23.4306 20 23.092V1.90796C19.9995 1.56938 19.9138 1.23704 19.7516 0.945111C19.5895 0.653188 19.3567 0.412218 19.0773 0.246982C18.7952 0.07914 18.4758 -0.00600876 18.1522 0.000329727C17.8286 0.00666822 17.5124 0.104264 17.2364 0.283038L0.863642 10.8763C0.599455 11.0451 0.381071 11.2834 0.229734 11.5679C0.0783978 11.8524 -0.000745773 12.1735 3.8147e-06 12.5Z" fill="#FDFDFD"/>
<rect width="4" height="25" rx="2" transform="matrix(-1 0 0 1 4 0)" fill="#FDFDFD"/>
</svg>
