<svg width="50" height="50" viewBox="0 0 50 50" fill="none" xmlns="http://www.w3.org/2000/svg">
<rect width="50" height="50" rx="15" fill="#FDFDFD"/>
<path d="M14.5 14.8889C14.1022 14.8889 13.7206 15.0411 13.4393 15.312C13.158 15.5828 13 15.9502 13 16.3333V29.3333C13 29.7164 13.158 30.0838 13.4393 30.3547C13.7206 30.6256 14.1022 30.7778 14.5 30.7778H35.5C35.8978 30.7778 36.2794 30.6256 36.5607 30.3547C36.842 30.0838 37 29.7164 37 29.3333V16.3333C37 15.9502 36.842 15.5828 36.5607 15.312C36.2794 15.0411 35.8978 14.8889 35.5 14.8889H14.5ZM14.5 12H35.5C36.6935 12 37.8381 12.4565 38.682 13.2692C39.5259 14.0819 40 15.1841 40 16.3333V29.3333C40 30.4826 39.5259 31.5848 38.682 32.3975C37.8381 33.2101 36.6935 33.6667 35.5 33.6667H14.5C13.3065 33.6667 12.1619 33.2101 11.318 32.3975C10.4741 31.5848 10 30.4826 10 29.3333V16.3333C10 15.1841 10.4741 14.0819 11.318 13.2692C12.1619 12.4565 13.3065 12 14.5 12ZM20.5 35.1111H29.5C29.8978 35.1111 30.2794 35.2633 30.5607 35.5342C30.842 35.8051 31 36.1725 31 36.5556C31 36.9386 30.842 37.306 30.5607 37.5769C30.2794 37.8478 29.8978 38 29.5 38H20.5C20.1022 38 19.7206 37.8478 19.4393 37.5769C19.158 37.306 19 36.9386 19 36.5556C19 36.1725 19.158 35.8051 19.4393 35.5342C19.7206 35.2633 20.1022 35.1111 20.5 35.1111Z" fill="#404040"/>
</svg>
