<svg width="50" height="50" viewBox="0 0 50 50" fill="none" xmlns="http://www.w3.org/2000/svg">
<circle cx="25" cy="25" r="25" fill="#FDFDFD"/>
<path d="M37 25.5C37.0007 25.8265 36.9216 26.1476 36.7703 26.4321C36.6189 26.7166 36.4005 26.9549 36.1364 27.1237L19.7636 37.717C19.4876 37.8957 19.1714 37.9933 18.8478 37.9997C18.5242 38.006 18.2048 37.9209 17.9227 37.753C17.6433 37.5878 17.4105 37.3468 17.2484 37.0549C17.0862 36.763 17.0005 36.4306 17 36.092V14.908C17.0005 14.5694 17.0862 14.237 17.2484 13.9451C17.4105 13.6532 17.6433 13.4122 17.9227 13.247C18.2048 13.0791 18.5242 12.994 18.8478 13.0003C19.1714 13.0067 19.4876 13.1043 19.7636 13.283L36.1364 23.8763C36.4005 24.0451 36.6189 24.2834 36.7703 24.5679C36.9216 24.8524 37.0007 25.1735 37 25.5Z" fill="#404040"/>
</svg>
