<svg width="20" height="25" viewBox="0 0 20 25" fill="none" xmlns="http://www.w3.org/2000/svg">
<path d="M20 12.5C20.0007 12.8265 19.9216 13.1476 19.7703 13.4321C19.6189 13.7166 19.4005 13.9549 19.1364 14.1237L2.76364 24.717C2.4876 24.8957 2.17144 24.9933 1.84782 24.9997C1.52419 25.006 1.20483 24.9209 0.922727 24.753C0.643307 24.5878 0.410541 24.3468 0.248368 24.0549C0.0861948 23.763 0.000466884 23.4306 0 23.092V1.90796C0.000466884 1.56938 0.0861948 1.23704 0.248368 0.945111C0.410541 0.653188 0.643307 0.412218 0.922727 0.246982C1.20483 0.07914 1.52419 -0.00600876 1.84782 0.000329727C2.17144 0.00666822 2.4876 0.104264 2.76364 0.283038L19.1364 10.8763C19.4005 11.0451 19.6189 11.2834 19.7703 11.5679C19.9216 11.8524 20.0007 12.1735 20 12.5Z" fill="#FDFDFD"/>
<rect x="16" width="4" height="25" rx="2" fill="#FDFDFD"/>
</svg>
